<?xml version="1.0" encoding="UTF-8" standalone="no"?>
<!-- Generator: Adobe Illustrator 19.2.1, SVG Export Plug-In . SVG Version: 6.00 Build 0)  -->

<svg
   xmlns:dc="http://purl.org/dc/elements/1.1/"
   xmlns:cc="http://creativecommons.org/ns#"
   xmlns:rdf="http://www.w3.org/1999/02/22-rdf-syntax-ns#"
   xmlns:svg="http://www.w3.org/2000/svg"
   xmlns="http://www.w3.org/2000/svg"
   xmlns:sodipodi="http://sodipodi.sourceforge.net/DTD/sodipodi-0.dtd"
   xmlns:inkscape="http://www.inkscape.org/namespaces/inkscape"
   version="1.1"
   id="レイヤー_1"
   x="0px"
   y="0px"
   viewBox="0 0 423 600"
   style="enable-background:new 0 0 423 600;"
   xml:space="preserve"
   inkscape:version="0.91 r13725"
   sodipodi:docname="black.svg"><metadata
     id="metadata223"><rdf:RDF><cc:Work
         rdf:about=""><dc:format>image/svg+xml</dc:format><dc:type
           rdf:resource="http://purl.org/dc/dcmitype/StillImage" /><dc:title></dc:title></cc:Work></rdf:RDF></metadata><defs
     id="defs221" /><sodipodi:namedview
     pagecolor="#ffffff"
     bordercolor="#666666"
     borderopacity="1"
     objecttolerance="10"
     gridtolerance="10"
     guidetolerance="10"
     inkscape:pageopacity="0"
     inkscape:pageshadow="2"
     inkscape:window-width="1271"
     inkscape:window-height="798"
     id="namedview219"
     showgrid="false"
     inkscape:zoom="1.1125147"
     inkscape:cx="340.61437"
     inkscape:cy="153.5701"
     inkscape:window-x="0"
     inkscape:window-y="0"
     inkscape:window-maximized="0"
     inkscape:current-layer="レイヤー_1" /><style
     type="text/css"
     id="style3">
	.st0{fill:#606060;}
	.st1{fill:#333333;}
	.st2{fill:url(#SVGID_1_);}
	.st3{fill:url(#SVGID_2_);}
	.st4{fill:#161922;}
	.st5{fill:#5E99D2;}
	.st6{fill:url(#SVGID_3_);}
	.st7{fill:url(#SVGID_4_);}
	.st8{fill:none;}
	.st9{fill:url(#SVGID_5_);}
	.st10{fill:url(#SVGID_6_);}
	.st11{fill:url(#SVGID_7_);}
	.st12{fill:url(#SVGID_8_);}
	.st13{fill:url(#SVGID_9_);}
	.st14{fill:url(#SVGID_10_);}
	.st15{fill:url(#SVGID_11_);}
	.st16{fill:url(#SVGID_12_);}
	.st17{fill:url(#SVGID_13_);}
	.st18{fill:url(#SVGID_14_);}
	.st19{fill:url(#SVGID_15_);}
	.st20{fill:url(#SVGID_16_);}
</style><path
     d="M423,23c0-12.6-10.3-23-23-23L23,0C10.4,0,0,10.4,0,23l0,554c0,12.7,10.4,23,23,23h377c12.7,0,23-10.3,23-23V23z"
     id="path5" /><g
     id="g11"><linearGradient
       id="SVGID_1_"
       gradientUnits="userSpaceOnUse"
       x1="31.5215"
       y1="754.6021"
       x2="35.8922"
       y2="750.2314"
       gradientTransform="matrix(1.0639 0 0 -1.0639 175.6321 828.2891)"><stop
         offset="0"
         style="stop-color:#353535"
         id="stop14" /><stop
         offset="1"
         style="stop-color:#666666"
         id="stop16" /></linearGradient><path
       class="st2"
       d="M208.2,27.8c0,1.8,1.5,3.3,3.3,3.3s3.3-1.5,3.3-3.3s-1.5-3.3-3.3-3.3S208.2,26,208.2,27.8"
       id="path18" /><g
       id="g20"><radialGradient
         id="SVGID_2_"
         cx="13.5543"
         cy="753.5244"
         r="2.3893"
         gradientTransform="matrix(0.9042 0 0 -0.9042 198.7746 708.614)"
         gradientUnits="userSpaceOnUse"><stop
           offset="0"
           style="stop-color:#00599E"
           id="stop23" /><stop
           offset="0.8098"
           style="stop-color:#002674"
           id="stop25" /><stop
           offset="1"
           style="stop-color:#00599E"
           id="stop27" /></radialGradient><path
         class="st3"
         d="M209.8,27.8c0,1,0.8,1.7,1.7,1.7c1,0,1.7-0.8,1.7-1.7c0-1-0.8-1.7-1.7-1.7C210.5,26,209.8,26.8,209.8,27.8"
         id="path29" /><g
         id="g31"><path
           class="st4"
           d="M211.1,28c0-0.5,0.4-0.8,0.8-0.8c0.5,0,0.8,0.4,0.8,0.8c0,0.5-0.4,0.8-0.8,0.8     C211.4,28.8,211.1,28.5,211.1,28"
           id="path33" /><path
           class="st5"
           d="M210.5,28.4c0-0.2,0.2-0.4,0.4-0.4s0.4,0.2,0.4,0.4c0,0.2-0.2,0.4-0.4,0.4S210.5,28.6,210.5,28.4"
           id="path35" /></g></g></g><g
     id="g37"><g
       id="g39"><g
         id="g41"><linearGradient
           id="SVGID_3_"
           gradientUnits="userSpaceOnUse"
           x1="13.8015"
           y1="216.5741"
           x2="24.2918"
           y2="203.8852"
           gradientTransform="matrix(1 0 0 -1 189 780)"><stop
             offset="0"
             style="stop-color:#0A0A0A"
             id="stop44" /><stop
             offset="0.5263"
             style="stop-color:#353535"
             id="stop46" /><stop
             offset="1"
             style="stop-color:#656565"
             id="stop48" /></linearGradient><path
           class="st6"
           d="M211.5,560.6c-7.4,0-13.3,6-13.3,13.3c0,3.7,1.5,7,3.9,9.4l18.8-18.8C218.5,562.1,215.2,560.6,211.5,560.6z"
           id="path50" /><linearGradient
           id="SVGID_4_"
           gradientUnits="userSpaceOnUse"
           x1="28.0378"
           y1="194.093"
           x2="22.9559"
           y2="206.3274"
           gradientTransform="matrix(1 0 0 -1 189 780)"><stop
             offset="0"
             style="stop-color:#0A0A0A"
             id="stop53" /><stop
             offset="0.4251"
             style="stop-color:#353535"
             id="stop55" /><stop
             offset="0.83"
             style="stop-color:#575757"
             id="stop57" /></linearGradient><path
           class="st7"
           d="M224.8,573.9c0-3.7-1.5-7-3.9-9.4l-18.8,18.8c2.4,2.4,5.7,3.9,9.4,3.9C218.9,587.2,224.8,581.3,224.8,573.9z     "
           id="path59" /></g></g><path
       d="M199.6,573.9c0,6.6,5.3,11.9,11.9,11.9c6.6,0,11.9-5.3,11.9-11.9c0-6.6-5.3-11.9-11.9-11.9   C204.9,562,199.6,567.3,199.6,573.9z"
       id="path61" /></g><g
     id="g63"><path
       class="st8"
       d="M23,597c-11,0-20-9-20-20V23C3,12,12,3,23,3h377c11,0,20,9,20,20v554c0,11-9,20-20,20H23z"
       id="path65" /><rect
       x="0"
       y="23"
       class="st8"
       width="3"
       height="554"
       id="rect67" /><rect
       x="420"
       y="23"
       class="st8"
       width="3"
       height="554"
       id="rect69" /><path
       class="st8"
       d="M423,23c0-12.6-10.3-23-23-23v3c11,0,20,9,20,20H423z"
       id="path71" /><path
       class="st8"
       d="M23,0C10.4,0,0,10.4,0,23h3C3,12,12,3,23,3V0z"
       id="path73" /><path
       class="st8"
       d="M0,577c0,12.7,10.3,23,23,23v-3c-11,0-20-9-20-20H0z"
       id="path75" /></g><g
     id="g77"><linearGradient
       id="SVGID_5_"
       gradientUnits="userSpaceOnUse"
       x1="235.6219"
       y1="758.6219"
       x2="212.6219"
       y2="781.6219"
       gradientTransform="matrix(1 0 0 -1 189 780)"><stop
         offset="0.247"
         style="stop-color:#2E2E35"
         id="stop80" /><stop
         offset="0.2733"
         style="stop-color:#CACBCB"
         id="stop82" /><stop
         offset="0.5"
         style="stop-color:#CACBCB"
         id="stop84" /><stop
         offset="0.5951"
         style="stop-color:#53545A"
         id="stop86" /><stop
         offset="0.7247"
         style="stop-color:#383840"
         id="stop88" /></linearGradient><path
       class="st9"
       d="M423,23c0-12.6-10.3-23-23-23v3c11,0,20,9,20,20H423z"
       id="path90" /><linearGradient
       id="SVGID_6_"
       gradientUnits="userSpaceOnUse"
       x1="48.5629"
       y1="390.6313"
       x2="25.5629"
       y2="413.6313"
       gradientTransform="matrix(-1 0 0 1 46.9316 188)"><stop
         offset="0.247"
         style="stop-color:#2E2E35"
         id="stop93" /><stop
         offset="0.2733"
         style="stop-color:#CACBCB"
         id="stop95" /><stop
         offset="0.5"
         style="stop-color:#CACBCB"
         id="stop97" /><stop
         offset="0.5951"
         style="stop-color:#53545A"
         id="stop99" /><stop
         offset="0.7247"
         style="stop-color:#383840"
         id="stop101" /></linearGradient><path
       class="st10"
       d="M0,577c0,12.7,10.3,23,23,23v-3c-11,0-20-9-20-20H0z"
       id="path103" /><linearGradient
       id="SVGID_7_"
       gradientUnits="userSpaceOnUse"
       x1="-190.6125"
       y1="758.6125"
       x2="-167.6125"
       y2="781.6125"
       gradientTransform="matrix(1 0 0 -1 189 780)"><stop
         offset="0"
         style="stop-color:#23222B"
         id="stop106" /><stop
         offset="0.5"
         style="stop-color:#CACBCB"
         id="stop108" /><stop
         offset="0.51"
         style="stop-color:#23222B"
         id="stop110" /><stop
         offset="1"
         style="stop-color:#6F7074"
         id="stop112" /></linearGradient><path
       class="st11"
       d="M23,0C10.4,0,0,10.4,0,23h3C3,12,12,3,23,3V0z"
       id="path114" /><linearGradient
       id="SVGID_8_"
       gradientUnits="userSpaceOnUse"
       x1="-166"
       y1="778.5"
       x2="211"
       y2="778.5"
       gradientTransform="matrix(1 0 0 -1 189 780)"><stop
         offset="0"
         style="stop-color:#6F7074"
         id="stop117" /><stop
         offset="0.2389"
         style="stop-color:#ACAEAF"
         id="stop119" /><stop
         offset="0.7328"
         style="stop-color:#ACAEAF"
         id="stop121" /><stop
         offset="1"
         style="stop-color:#383840"
         id="stop123" /></linearGradient><rect
       x="23"
       y="0"
       class="st12"
       width="377"
       height="3"
       id="rect125" /><linearGradient
       id="SVGID_9_"
       gradientUnits="userSpaceOnUse"
       x1="212.6313"
       y1="178.3687"
       x2="235.6313"
       y2="201.3687"
       gradientTransform="matrix(1 0 0 -1 189 780)"><stop
         offset="0"
         style="stop-color:#23222B"
         id="stop128" /><stop
         offset="0.5"
         style="stop-color:#CACBCB"
         id="stop130" /><stop
         offset="0.51"
         style="stop-color:#23222B"
         id="stop132" /><stop
         offset="1"
         style="stop-color:#2E2E35"
         id="stop134" /></linearGradient><path
       class="st13"
       d="M400,600c12.7,0,23-10.3,23-23h-3c0,11-9,20-20,20V600z"
       id="path136" /><linearGradient
       id="SVGID_10_"
       gradientUnits="userSpaceOnUse"
       x1="-166"
       y1="181.5"
       x2="211"
       y2="181.5"
       gradientTransform="matrix(1 0 0 -1 189 780)"><stop
         offset="0"
         style="stop-color:#23222B"
         id="stop139" /><stop
         offset="0.2308"
         style="stop-color:#ACAEAF"
         id="stop141" /><stop
         offset="0.7287"
         style="stop-color:#ACAEAF"
         id="stop143" /><stop
         offset="1"
         style="stop-color:#23222B"
         id="stop145" /></linearGradient><rect
       x="23"
       y="597"
       class="st14"
       width="377"
       height="3"
       id="rect147" /><g
       id="g149"><linearGradient
         id="SVGID_11_"
         gradientUnits="userSpaceOnUse"
         x1="-186.5"
         y1="203"
         x2="-186.5"
         y2="757"
         gradientTransform="matrix(1 0 0 -1 189 780)"><stop
           offset="0"
           style="stop-color:#23222B"
           id="stop152" /><stop
           offset="9.311740e-002"
           style="stop-color:#A3A4A6"
           id="stop154" /><stop
           offset="0.7895"
           style="stop-color:#A3A4A6"
           id="stop156" /><stop
           offset="1"
           style="stop-color:#383840"
           id="stop158" /></linearGradient><rect
         x="2"
         y="23"
         class="st15"
         width="1"
         height="554"
         id="rect160" /><linearGradient
         id="SVGID_12_"
         gradientUnits="userSpaceOnUse"
         x1="-187.5"
         y1="203"
         x2="-187.5"
         y2="757"
         gradientTransform="matrix(1 0 0 -1 189 780)"><stop
           offset="0"
           style="stop-color:#23222B"
           id="stop163" /><stop
           offset="9.311740e-002"
           style="stop-color:#A8ABAC"
           id="stop165" /><stop
           offset="0.7895"
           style="stop-color:#A8ABAC"
           id="stop167" /><stop
           offset="1"
           style="stop-color:#383840"
           id="stop169" /></linearGradient><rect
         x="1"
         y="23"
         class="st16"
         width="1"
         height="554"
         id="rect171" /><linearGradient
         id="SVGID_13_"
         gradientUnits="userSpaceOnUse"
         x1="-188.5"
         y1="203"
         x2="-188.5"
         y2="757"
         gradientTransform="matrix(1 0 0 -1 189 780)"><stop
           offset="0"
           style="stop-color:#23222B"
           id="stop174" /><stop
           offset="9.311740e-002"
           style="stop-color:#989A9C"
           id="stop176" /><stop
           offset="0.7895"
           style="stop-color:#989A9C"
           id="stop178" /><stop
           offset="1"
           style="stop-color:#383840"
           id="stop180" /></linearGradient><rect
         x="0"
         y="23"
         class="st17"
         width="1"
         height="554"
         id="rect182" /></g><g
       id="g184"><linearGradient
         id="SVGID_14_"
         gradientUnits="userSpaceOnUse"
         x1="233.5"
         y1="203"
         x2="233.5"
         y2="757"
         gradientTransform="matrix(1 0 0 -1 189 780)"><stop
           offset="0"
           style="stop-color:#2E2E35"
           id="stop187" /><stop
           offset="5.000000e-002"
           style="stop-color:#A1A3A5"
           id="stop189" /><stop
           offset="0.7895"
           style="stop-color:#A1A3A5"
           id="stop191" /><stop
           offset="1"
           style="stop-color:#2E2E35"
           id="stop193" /></linearGradient><rect
         x="422"
         y="23"
         class="st18"
         width="1"
         height="554"
         id="rect195" /><linearGradient
         id="SVGID_15_"
         gradientUnits="userSpaceOnUse"
         x1="232.5"
         y1="203"
         x2="232.5"
         y2="757"
         gradientTransform="matrix(1 0 0 -1 189 780)"><stop
           offset="0"
           style="stop-color:#2E2E35"
           id="stop198" /><stop
           offset="5.000000e-002"
           style="stop-color:#A1A3A5"
           id="stop200" /><stop
           offset="0.7895"
           style="stop-color:#A1A3A5"
           id="stop202" /><stop
           offset="1"
           style="stop-color:#2E2E35"
           id="stop204" /></linearGradient><rect
         x="421"
         y="23"
         class="st19"
         width="1"
         height="554"
         id="rect206" /><linearGradient
         id="SVGID_16_"
         gradientUnits="userSpaceOnUse"
         x1="231.5"
         y1="203"
         x2="231.5"
         y2="757"
         gradientTransform="matrix(1 0 0 -1 189 780)"><stop
           offset="0"
           style="stop-color:#2E2E35"
           id="stop209" /><stop
           offset="3.643720e-002"
           style="stop-color:#A1A3A5"
           id="stop211" /><stop
           offset="0.9231"
           style="stop-color:#A1A3A5"
           id="stop213" /><stop
           offset="1"
           style="stop-color:#2E2E35"
           id="stop215" /></linearGradient><rect
         x="420"
         y="23"
         class="st20"
         width="1"
         height="554"
         id="rect217" /></g></g></svg>