<?xml version="1.0" encoding="UTF-8" standalone="no"?>
<!-- Generator: Adobe Illustrator 19.2.1, SVG Export Plug-In . SVG Version: 6.00 Build 0)  -->

<svg
   xmlns:dc="http://purl.org/dc/elements/1.1/"
   xmlns:cc="http://creativecommons.org/ns#"
   xmlns:rdf="http://www.w3.org/1999/02/22-rdf-syntax-ns#"
   xmlns:svg="http://www.w3.org/2000/svg"
   xmlns="http://www.w3.org/2000/svg"
   xmlns:sodipodi="http://sodipodi.sourceforge.net/DTD/sodipodi-0.dtd"
   xmlns:inkscape="http://www.inkscape.org/namespaces/inkscape"
   version="1.1"
   id="レイヤー_1"
   x="0px"
   y="0px"
   viewBox="0 0 600 423"
   xml:space="preserve"
   inkscape:version="0.91 r13725"
   sodipodi:docname="black-landscape.svg"
   width="600"
   height="423"><metadata
     id="metadata223"><rdf:RDF><cc:Work
         rdf:about=""><dc:format>image/svg+xml</dc:format><dc:type
           rdf:resource="http://purl.org/dc/dcmitype/StillImage" /><dc:title></dc:title></cc:Work></rdf:RDF></metadata><defs
     id="defs221" /><sodipodi:namedview
     pagecolor="#ffffff"
     bordercolor="#666666"
     borderopacity="1"
     objecttolerance="10"
     gridtolerance="10"
     guidetolerance="10"
     inkscape:pageopacity="0"
     inkscape:pageshadow="2"
     inkscape:window-width="1273"
     inkscape:window-height="738"
     id="namedview219"
     showgrid="false"
     fit-margin-top="0"
     fit-margin-left="0"
     fit-margin-right="0"
     fit-margin-bottom="0"
     inkscape:zoom="0.48"
     inkscape:cx="300"
     inkscape:cy="211.5"
     inkscape:window-x="0"
     inkscape:window-y="0"
     inkscape:window-maximized="0"
     inkscape:current-layer="レイヤー_1" /><style
     type="text/css"
     id="style3">
	.st0{fill:#606060;}
	.st1{fill:#333333;}
	.st2{fill:url(#SVGID_1_);}
	.st3{fill:url(#SVGID_2_);}
	.st4{fill:#161922;}
	.st5{fill:#5E99D2;}
	.st6{fill:url(#SVGID_3_);}
	.st7{fill:url(#SVGID_4_);}
	.st8{fill:none;}
	.st9{fill:url(#SVGID_5_);}
	.st10{fill:url(#SVGID_6_);}
	.st11{fill:url(#SVGID_7_);}
	.st12{fill:url(#SVGID_8_);}
	.st13{fill:url(#SVGID_9_);}
	.st14{fill:url(#SVGID_10_);}
	.st15{fill:url(#SVGID_11_);}
	.st16{fill:url(#SVGID_12_);}
	.st17{fill:url(#SVGID_13_);}
	.st18{fill:url(#SVGID_14_);}
	.st19{fill:url(#SVGID_15_);}
	.st20{fill:url(#SVGID_16_);}
</style><path
     d="M 23,0 C 10.4,0 0,10.3 0,23 l 0,377 c 0,12.6 10.4,23 23,23 l 554,0 c 12.7,0 23,-10.4 23,-23 L 600,23 C 600,10.3 589.7,0 577,0 L 23,0 Z"
     id="path5"
     inkscape:connector-curvature="0" /><g
     id="g11"><linearGradient
       id="SVGID_1_"
       gradientUnits="userSpaceOnUse"
       x1="297.97791"
       y1="-62.809601"
       x2="302.3465"
       y2="-58.441002"
       gradientTransform="matrix(0,-1.0639,1.0639,0,92.2827,530.8425)"><stop
         offset="0"
         style="stop-color:#353535"
         id="stop14" /><stop
         offset="1"
         style="stop-color:#666666"
         id="stop16" /></linearGradient><path
       class="st2"
       d="m 27.8,214.8 c 1.8,0 3.3,-1.5 3.3,-3.3 0,-1.8 -1.5,-3.3 -3.3,-3.3 -1.8,0 -3.3,1.5 -3.3,3.3 0,1.8 1.5,3.3 3.3,3.3"
       id="path18"
       inkscape:connector-curvature="0"
       style="fill:url(#SVGID_1_)" /><g
       id="g20"><radialGradient
         id="SVGID_2_"
         cx="310.5491"
         cy="-62.5541"
         r="2.3893001"
         gradientTransform="matrix(0,-0.9042,0.9042,0,83.8387,492.7681)"
         gradientUnits="userSpaceOnUse"><stop
           offset="0"
           style="stop-color:#00599E"
           id="stop23" /><stop
           offset="0.8098"
           style="stop-color:#002674"
           id="stop25" /><stop
           offset="1"
           style="stop-color:#00599E"
           id="stop27" /></radialGradient><path
         class="st3"
         d="m 27.8,213.2 c 1,0 1.7,-0.8 1.7,-1.7 0,-1 -0.8,-1.7 -1.7,-1.7 -1,0 -1.7,0.8 -1.7,1.7 -0.1,1 0.7,1.7 1.7,1.7"
         id="path29"
         inkscape:connector-curvature="0"
         style="fill:url(#SVGID_2_)" /><g
         id="g31"><path
           class="st4"
           d="m 28,211.9 c -0.5,0 -0.8,-0.4 -0.8,-0.8 0,-0.5 0.4,-0.8 0.8,-0.8 0.5,0 0.8,0.4 0.8,0.8 0,0.5 -0.3,0.8 -0.8,0.8"
           id="path33"
           inkscape:connector-curvature="0"
           style="fill:#161922" /><path
           class="st5"
           d="m 28.4,212.5 c -0.2,0 -0.4,-0.2 -0.4,-0.4 0,-0.2 0.2,-0.4 0.4,-0.4 0.2,0 0.4,0.2 0.4,0.4 0,0.2 -0.2,0.4 -0.4,0.4"
           id="path35"
           inkscape:connector-curvature="0"
           style="fill:#5e99d2" /></g></g></g><g
     id="g37"><g
       id="g39"><g
         id="g41"><linearGradient
           id="SVGID_3_"
           gradientUnits="userSpaceOnUse"
           x1="291.2984"
           y1="474.9285"
           x2="301.7887"
           y2="487.61731"
           gradientTransform="matrix(0,-1,1,0,88.5,511.5)"><stop
             offset="0"
             style="stop-color:#0A0A0A"
             id="stop44" /><stop
             offset="0.5263"
             style="stop-color:#353535"
             id="stop46" /><stop
             offset="1"
             style="stop-color:#656565"
             id="stop48" /></linearGradient><path
           class="st6"
           d="m 560.6,211.5 c 0,7.4 6,13.3 13.3,13.3 3.7,0 7,-1.5 9.4,-3.9 l -18.8,-18.8 c -2.4,2.4 -3.9,5.7 -3.9,9.4 z"
           id="path50"
           inkscape:connector-curvature="0"
           style="fill:url(#SVGID_3_)" /><linearGradient
           id="SVGID_4_"
           gradientUnits="userSpaceOnUse"
           x1="305.53339"
           y1="497.40881"
           x2="300.45151"
           y2="485.17441"
           gradientTransform="matrix(0,-1,1,0,88.5,511.5)"><stop
             offset="0"
             style="stop-color:#0A0A0A"
             id="stop53" /><stop
             offset="0.4251"
             style="stop-color:#353535"
             id="stop55" /><stop
             offset="0.83"
             style="stop-color:#575757"
             id="stop57" /></linearGradient><path
           class="st7"
           d="m 573.9,198.2 c -3.7,0 -7,1.5 -9.4,3.9 l 18.8,18.8 c 2.4,-2.4 3.9,-5.7 3.9,-9.4 0,-7.4 -5.9,-13.3 -13.3,-13.3 z"
           id="path59"
           inkscape:connector-curvature="0"
           style="fill:url(#SVGID_4_)" /></g></g><path
       d="m 573.9,223.4 c 6.6,0 11.9,-5.3 11.9,-11.9 0,-6.6 -5.3,-11.9 -11.9,-11.9 -6.6,0 -11.9,5.3 -11.9,11.9 0,6.6 5.3,11.9 11.9,11.9 z"
       id="path61"
       inkscape:connector-curvature="0" /></g><g
     id="g63"><path
       class="st8"
       d="m 597,400 c 0,11 -9,20 -20,20 L 23,420 C 12,420 3,411 3,400 L 3,23 C 3,12 12,3 23,3 l 554,0 c 11,0 20,9 20,20 l 0,377 z"
       id="path65"
       inkscape:connector-curvature="0"
       style="fill:none" /><rect
       x="23"
       y="420"
       class="st8"
       width="554"
       height="3"
       id="rect67"
       style="fill:none" /><rect
       x="23"
       y="0"
       class="st8"
       width="554"
       height="3"
       id="rect69"
       style="fill:none" /><path
       class="st8"
       d="M 23,0 C 10.4,0 0,10.3 0,23 l 3,0 C 3,12 12,3 23,3 l 0,-3 z"
       id="path71"
       inkscape:connector-curvature="0"
       style="fill:none" /><path
       class="st8"
       d="m 0,400 c 0,12.6 10.4,23 23,23 l 0,-3 C 12,420 3,411 3,400 l -3,0 z"
       id="path73"
       inkscape:connector-curvature="0"
       style="fill:none" /><path
       class="st8"
       d="m 577,423 c 12.7,0 23,-10.3 23,-23 l -3,0 c 0,11 -9,20 -20,20 l 0,3 z"
       id="path75"
       inkscape:connector-curvature="0"
       style="fill:none" /></g><g
     id="g77"><linearGradient
       id="SVGID_5_"
       gradientUnits="userSpaceOnUse"
       x1="513.12189"
       y1="-67.121902"
       x2="490.12189"
       y2="-90.121902"
       gradientTransform="matrix(0,-1,1,0,88.5,511.5)"><stop
         offset="0.247"
         style="stop-color:#2E2E35"
         id="stop80" /><stop
         offset="0.2733"
         style="stop-color:#CACBCB"
         id="stop82" /><stop
         offset="0.5"
         style="stop-color:#CACBCB"
         id="stop84" /><stop
         offset="0.5951"
         style="stop-color:#53545A"
         id="stop86" /><stop
         offset="0.7247"
         style="stop-color:#383840"
         id="stop88" /></linearGradient><path
       class="st9"
       d="M 23,0 C 10.4,0 0,10.3 0,23 l 3,0 C 3,12 12,3 23,3 l 0,-3 z"
       id="path90"
       inkscape:connector-curvature="0"
       style="fill:url(#SVGID_5_)" /><linearGradient
       id="SVGID_6_"
       gradientUnits="userSpaceOnUse"
       x1="-41.9464"
       y1="310.87811"
       x2="-64.946404"
       y2="287.87811"
       gradientTransform="matrix(0,1,-1,0,889.5,466.5684)"><stop
         offset="0.247"
         style="stop-color:#2E2E35"
         id="stop93" /><stop
         offset="0.2733"
         style="stop-color:#CACBCB"
         id="stop95" /><stop
         offset="0.5"
         style="stop-color:#CACBCB"
         id="stop97" /><stop
         offset="0.5951"
         style="stop-color:#53545A"
         id="stop99" /><stop
         offset="0.7247"
         style="stop-color:#383840"
         id="stop101" /></linearGradient><path
       class="st10"
       d="m 577,423 c 12.7,0 23,-10.3 23,-23 l -3,0 c 0,11 -9,20 -20,20 l 0,3 z"
       id="path103"
       inkscape:connector-curvature="0"
       style="fill:url(#SVGID_6_)" /><linearGradient
       id="SVGID_7_"
       gradientUnits="userSpaceOnUse"
       x1="86.878197"
       y1="-67.121803"
       x2="109.8782"
       y2="-90.121803"
       gradientTransform="matrix(0,-1,1,0,88.5,511.5)"><stop
         offset="0"
         style="stop-color:#23222B"
         id="stop106" /><stop
         offset="0.5"
         style="stop-color:#CACBCB"
         id="stop108" /><stop
         offset="0.51"
         style="stop-color:#23222B"
         id="stop110" /><stop
         offset="1"
         style="stop-color:#6F7074"
         id="stop112" /></linearGradient><path
       class="st11"
       d="m 0,400 c 0,12.6 10.4,23 23,23 l 0,-3 C 12,420 3,411 3,400 l -3,0 z"
       id="path114"
       inkscape:connector-curvature="0"
       style="fill:url(#SVGID_7_)" /><linearGradient
       id="SVGID_8_"
       gradientUnits="userSpaceOnUse"
       x1="111.5"
       y1="-87"
       x2="488.5"
       y2="-87"
       gradientTransform="matrix(0,-1,1,0,88.5,511.5)"><stop
         offset="0"
         style="stop-color:#6F7074"
         id="stop117" /><stop
         offset="0.2389"
         style="stop-color:#ACAEAF"
         id="stop119" /><stop
         offset="0.7328"
         style="stop-color:#ACAEAF"
         id="stop121" /><stop
         offset="1"
         style="stop-color:#383840"
         id="stop123" /></linearGradient><rect
       x="0"
       y="23"
       class="st12"
       width="3"
       height="377"
       id="rect125"
       style="fill:url(#SVGID_8_)" /><linearGradient
       id="SVGID_9_"
       gradientUnits="userSpaceOnUse"
       x1="490.12189"
       y1="513.12189"
       x2="513.12189"
       y2="490.12189"
       gradientTransform="matrix(0,-1,1,0,88.5,511.5)"><stop
         offset="0"
         style="stop-color:#23222B"
         id="stop128" /><stop
         offset="0.5"
         style="stop-color:#CACBCB"
         id="stop130" /><stop
         offset="0.51"
         style="stop-color:#23222B"
         id="stop132" /><stop
         offset="1"
         style="stop-color:#2E2E35"
         id="stop134" /></linearGradient><path
       class="st13"
       d="M 600,23 C 600,10.3 589.7,0 577,0 l 0,3 c 11,0 20,9 20,20 l 3,0 z"
       id="path136"
       inkscape:connector-curvature="0"
       style="fill:url(#SVGID_9_)" /><linearGradient
       id="SVGID_10_"
       gradientUnits="userSpaceOnUse"
       x1="111.5"
       y1="510"
       x2="488.5"
       y2="510"
       gradientTransform="matrix(0,-1,1,0,88.5,511.5)"><stop
         offset="0"
         style="stop-color:#23222B"
         id="stop139" /><stop
         offset="0.2308"
         style="stop-color:#ACAEAF"
         id="stop141" /><stop
         offset="0.7287"
         style="stop-color:#ACAEAF"
         id="stop143" /><stop
         offset="1"
         style="stop-color:#23222B"
         id="stop145" /></linearGradient><rect
       x="597"
       y="23"
       class="st14"
       width="3"
       height="377"
       id="rect147"
       style="fill:url(#SVGID_10_)" /><g
       id="g149"><linearGradient
         id="SVGID_11_"
         gradientUnits="userSpaceOnUse"
         x1="91"
         y1="488.5"
         x2="91"
         y2="-65.500504"
         gradientTransform="matrix(0,-1,1,0,88.5,511.5)"><stop
           offset="0"
           style="stop-color:#23222B"
           id="stop152" /><stop
           offset="9.311740e-002"
           style="stop-color:#A3A4A6"
           id="stop154" /><stop
           offset="0.7895"
           style="stop-color:#A3A4A6"
           id="stop156" /><stop
           offset="1"
           style="stop-color:#383840"
           id="stop158" /></linearGradient><rect
         x="23"
         y="420"
         class="st15"
         width="554"
         height="1"
         id="rect160"
         style="fill:url(#SVGID_11_)" /><linearGradient
         id="SVGID_12_"
         gradientUnits="userSpaceOnUse"
         x1="90"
         y1="488.5"
         x2="90"
         y2="-65.500504"
         gradientTransform="matrix(0,-1,1,0,88.5,511.5)"><stop
           offset="0"
           style="stop-color:#23222B"
           id="stop163" /><stop
           offset="9.311740e-002"
           style="stop-color:#A8ABAC"
           id="stop165" /><stop
           offset="0.7895"
           style="stop-color:#A8ABAC"
           id="stop167" /><stop
           offset="1"
           style="stop-color:#383840"
           id="stop169" /></linearGradient><rect
         x="23"
         y="421"
         class="st16"
         width="554"
         height="1"
         id="rect171"
         style="fill:url(#SVGID_12_)" /><linearGradient
         id="SVGID_13_"
         gradientUnits="userSpaceOnUse"
         x1="89"
         y1="488.5"
         x2="89"
         y2="-65.500504"
         gradientTransform="matrix(0,-1,1,0,88.5,511.5)"><stop
           offset="0"
           style="stop-color:#23222B"
           id="stop174" /><stop
           offset="9.311740e-002"
           style="stop-color:#989A9C"
           id="stop176" /><stop
           offset="0.7895"
           style="stop-color:#989A9C"
           id="stop178" /><stop
           offset="1"
           style="stop-color:#383840"
           id="stop180" /></linearGradient><rect
         x="23"
         y="422"
         class="st17"
         width="554"
         height="1"
         id="rect182"
         style="fill:url(#SVGID_13_)" /></g><g
       id="g184"><linearGradient
         id="SVGID_14_"
         gradientUnits="userSpaceOnUse"
         x1="511"
         y1="488.5"
         x2="511"
         y2="-65.500504"
         gradientTransform="matrix(0,-1,1,0,88.5,511.5)"><stop
           offset="0"
           style="stop-color:#2E2E35"
           id="stop187" /><stop
           offset="5.000000e-002"
           style="stop-color:#A1A3A5"
           id="stop189" /><stop
           offset="0.7895"
           style="stop-color:#A1A3A5"
           id="stop191" /><stop
           offset="1"
           style="stop-color:#2E2E35"
           id="stop193" /></linearGradient><rect
         x="23"
         y="0"
         class="st18"
         width="554"
         height="1"
         id="rect195"
         style="fill:url(#SVGID_14_)" /><linearGradient
         id="SVGID_15_"
         gradientUnits="userSpaceOnUse"
         x1="510"
         y1="488.5"
         x2="510"
         y2="-65.500504"
         gradientTransform="matrix(0,-1,1,0,88.5,511.5)"><stop
           offset="0"
           style="stop-color:#2E2E35"
           id="stop198" /><stop
           offset="5.000000e-002"
           style="stop-color:#A1A3A5"
           id="stop200" /><stop
           offset="0.7895"
           style="stop-color:#A1A3A5"
           id="stop202" /><stop
           offset="1"
           style="stop-color:#2E2E35"
           id="stop204" /></linearGradient><rect
         x="23"
         y="1"
         class="st19"
         width="554"
         height="1"
         id="rect206"
         style="fill:url(#SVGID_15_)" /><linearGradient
         id="SVGID_16_"
         gradientUnits="userSpaceOnUse"
         x1="509"
         y1="488.5"
         x2="509"
         y2="-65.500504"
         gradientTransform="matrix(0,-1,1,0,88.5,511.5)"><stop
           offset="0"
           style="stop-color:#2E2E35"
           id="stop209" /><stop
           offset="3.643720e-002"
           style="stop-color:#A1A3A5"
           id="stop211" /><stop
           offset="0.9231"
           style="stop-color:#A1A3A5"
           id="stop213" /><stop
           offset="1"
           style="stop-color:#2E2E35"
           id="stop215" /></linearGradient><rect
         x="23"
         y="2"
         class="st20"
         width="554"
         height="1"
         id="rect217"
         style="fill:url(#SVGID_16_)" /></g></g></svg>