<?xml version="1.0" encoding="UTF-8" standalone="no"?>
<!-- Generator: Adobe Illustrator 19.2.1, SVG Export Plug-In . SVG Version: 6.00 Build 0)  -->

<svg
   xmlns:dc="http://purl.org/dc/elements/1.1/"
   xmlns:cc="http://creativecommons.org/ns#"
   xmlns:rdf="http://www.w3.org/1999/02/22-rdf-syntax-ns#"
   xmlns:svg="http://www.w3.org/2000/svg"
   xmlns="http://www.w3.org/2000/svg"
   xmlns:sodipodi="http://sodipodi.sourceforge.net/DTD/sodipodi-0.dtd"
   xmlns:inkscape="http://www.inkscape.org/namespaces/inkscape"
   version="1.1"
   id="レイヤー_1"
   x="0px"
   y="0px"
   viewBox="0 0 423 600"
   style="enable-background:new 0 0 423 600;"
   xml:space="preserve"
   inkscape:version="0.91 r13725"
   sodipodi:docname="gold.svg"><metadata
     id="metadata221"><rdf:RDF><cc:Work
         rdf:about=""><dc:format>image/svg+xml</dc:format><dc:type
           rdf:resource="http://purl.org/dc/dcmitype/StillImage" /><dc:title></dc:title></cc:Work></rdf:RDF></metadata><defs
     id="defs219" /><sodipodi:namedview
     pagecolor="#ffffff"
     bordercolor="#666666"
     borderopacity="1"
     objecttolerance="10"
     gridtolerance="10"
     guidetolerance="10"
     inkscape:pageopacity="0"
     inkscape:pageshadow="2"
     inkscape:window-width="1629"
     inkscape:window-height="936"
     id="namedview217"
     showgrid="false"
     inkscape:zoom="1.1125147"
     inkscape:cx="143.72666"
     inkscape:cy="368.22414"
     inkscape:window-x="0"
     inkscape:window-y="0"
     inkscape:window-maximized="0"
     inkscape:current-layer="レイヤー_1" /><style
     type="text/css"
     id="style3">
	.st0{fill:#F5F6F8;}
	.st1{fill:#606060;}
	.st2{fill:#333333;}
	.st3{fill:url(#SVGID_1_);}
	.st4{fill:url(#SVGID_2_);}
	.st5{fill:#161922;}
	.st6{fill:#5E99D2;}
	.st7{fill:url(#SVGID_3_);}
	.st8{fill:url(#SVGID_4_);}
	.st9{fill:none;}
	.st10{fill:url(#SVGID_5_);}
	.st11{fill:url(#SVGID_6_);}
	.st12{fill:url(#SVGID_7_);}
	.st13{fill:url(#SVGID_8_);}
	.st14{fill:url(#SVGID_9_);}
	.st15{fill:url(#SVGID_10_);}
	.st16{fill:url(#SVGID_11_);}
	.st17{fill:url(#SVGID_12_);}
	.st18{fill:url(#SVGID_13_);}
	.st19{fill:url(#SVGID_14_);}
	.st20{fill:url(#SVGID_15_);}
	.st21{fill:url(#SVGID_16_);}
</style><g
     id="g5"><path
       class="st0"
       d="M423,23c0-12.6-10.3-23-23-23L23,0C10.4,0,0,10.4,0,23l0,554c0,12.7,10.4,23,23,23h377c12.7,0,23-10.3,23-23   V23z"
       id="path7" /><g
       id="g13"><linearGradient
         id="SVGID_1_"
         gradientUnits="userSpaceOnUse"
         x1="31.5232"
         y1="754.6024"
         x2="35.894"
         y2="750.2316"
         gradientTransform="matrix(1.0639 0 0 -1.0639 175.6302 828.2892)"><stop
           offset="0"
           style="stop-color:#353535"
           id="stop16" /><stop
           offset="1"
           style="stop-color:#666666"
           id="stop18" /></linearGradient><path
         class="st3"
         d="M208.2,27.8c0,1.8,1.5,3.3,3.3,3.3s3.3-1.5,3.3-3.3s-1.5-3.3-3.3-3.3S208.2,26,208.2,27.8"
         id="path20" /><g
         id="g22"><radialGradient
           id="SVGID_2_"
           cx="13.5504"
           cy="753.5247"
           r="2.3893"
           gradientTransform="matrix(0.9042 0 0 -0.9042 198.7781 708.6142)"
           gradientUnits="userSpaceOnUse"><stop
             offset="0"
             style="stop-color:#00599E"
             id="stop25" /><stop
             offset="0.8098"
             style="stop-color:#002674"
             id="stop27" /><stop
             offset="1"
             style="stop-color:#00599E"
             id="stop29" /></radialGradient><path
           class="st4"
           d="M209.8,27.8c0,1,0.8,1.7,1.7,1.7c1,0,1.7-0.8,1.7-1.7c0-1-0.8-1.7-1.7-1.7C210.5,26,209.8,26.8,209.8,27.8"
           id="path31" /><g
           id="g33"><path
             class="st5"
             d="M211.1,28c0-0.5,0.4-0.8,0.8-0.8c0.5,0,0.8,0.4,0.8,0.8c0,0.5-0.4,0.8-0.8,0.8      C211.4,28.8,211.1,28.5,211.1,28"
             id="path35" /><path
             class="st6"
             d="M210.5,28.4c0-0.2,0.2-0.4,0.4-0.4s0.4,0.2,0.4,0.4c0,0.2-0.2,0.4-0.4,0.4S210.5,28.6,210.5,28.4"
             id="path37" /></g></g></g><g
       id="g39"><g
         id="g41"><g
           id="g43"><linearGradient
             id="SVGID_3_"
             gradientUnits="userSpaceOnUse"
             x1="13.8017"
             y1="216.5738"
             x2="24.2915"
             y2="203.8856"
             gradientTransform="matrix(1 0 0 -1 189.0002 780.0003)"><stop
               offset="0"
               style="stop-color:#1A1A1A"
               id="stop46" /><stop
               offset="0.7571"
               style="stop-color:#DDDDDD"
               id="stop48" /></linearGradient><path
             class="st7"
             d="M211.5,560.6c-7.4,0-13.3,6-13.3,13.3c0,3.7,1.5,7,3.9,9.4l18.8-18.8C218.5,562.1,215.2,560.6,211.5,560.6z      "
             id="path50" /><linearGradient
             id="SVGID_4_"
             gradientUnits="userSpaceOnUse"
             x1="28.0376"
             y1="194.0931"
             x2="22.9558"
             y2="206.3274"
             gradientTransform="matrix(1 0 0 -1 189.0002 780.0003)"><stop
               offset="0"
               style="stop-color:#4E4E4E"
               id="stop53" /><stop
               offset="0.4372"
               style="stop-color:#DDDDDD"
               id="stop55" /></linearGradient><path
             class="st8"
             d="M224.8,573.9c0-3.7-1.5-7-3.9-9.4l-18.8,18.8c2.4,2.4,5.7,3.9,9.4,3.9C218.9,587.2,224.8,581.3,224.8,573.9      z"
             id="path57" /></g></g><path
         class="st0"
         d="M199.6,573.9c0,6.6,5.3,11.9,11.9,11.9c6.6,0,11.9-5.3,11.9-11.9c0-6.6-5.3-11.9-11.9-11.9    C204.9,562,199.6,567.3,199.6,573.9z"
         id="path59" /></g><g
       id="g61"><path
         class="st9"
         d="M23,597c-11,0-20-9-20-20V23C3,12,12,3,23,3h377c11,0,20,9,20,20v554c0,11-9,20-20,20H23z"
         id="path63" /><rect
         x="0"
         y="23"
         class="st9"
         width="3"
         height="554"
         id="rect65" /><rect
         x="420"
         y="23"
         class="st9"
         width="3"
         height="554"
         id="rect67" /><path
         class="st9"
         d="M423,23c0-12.6-10.3-23-23-23v3c11,0,20,9,20,20H423z"
         id="path69" /><path
         class="st9"
         d="M23,0C10.4,0,0,10.4,0,23h3C3,12,12,3,23,3V0z"
         id="path71" /><path
         class="st9"
         d="M0,577c0,12.7,10.3,23,23,23v-3c-11,0-20-9-20-20H0z"
         id="path73" /><g
         id="g75"><linearGradient
           id="SVGID_5_"
           gradientUnits="userSpaceOnUse"
           x1="235.6217"
           y1="758.6222"
           x2="212.6217"
           y2="781.6222"
           gradientTransform="matrix(1 0 0 -1 189.0002 780.0003)"><stop
             offset="0.247"
             style="stop-color:#94755E"
             id="stop78" /><stop
             offset="0.2733"
             style="stop-color:#FFFFF4"
             id="stop80" /><stop
             offset="0.5"
             style="stop-color:#FFFFF4"
             id="stop82" /><stop
             offset="0.5951"
             style="stop-color:#B99B83"
             id="stop84" /><stop
             offset="0.7247"
             style="stop-color:#9E7F69"
             id="stop86" /></linearGradient><path
           class="st10"
           d="M423,23c0-12.6-10.3-23-23-23v3c11,0,20,9,20,20H423z"
           id="path88" /><linearGradient
           id="SVGID_6_"
           gradientUnits="userSpaceOnUse"
           x1="48.631"
           y1="390.6314"
           x2="25.631"
           y2="413.6314"
           gradientTransform="matrix(-1 0 0 1 46.9998 187.9998)"><stop
             offset="0.247"
             style="stop-color:#94755E"
             id="stop91" /><stop
             offset="0.2733"
             style="stop-color:#FFFFF4"
             id="stop93" /><stop
             offset="0.5"
             style="stop-color:#FFFFF4"
             id="stop95" /><stop
             offset="0.5951"
             style="stop-color:#B99B83"
             id="stop97" /><stop
             offset="0.7247"
             style="stop-color:#9E7F69"
             id="stop99" /></linearGradient><path
           class="st11"
           d="M0,577c0,12.7,10.3,23,23,23v-3c-11,0-20-9-20-20H0z"
           id="path101" /><linearGradient
           id="SVGID_7_"
           gradientUnits="userSpaceOnUse"
           x1="-190.6127"
           y1="758.6128"
           x2="-167.6127"
           y2="781.6128"
           gradientTransform="matrix(1 0 0 -1 189.0002 780.0003)"><stop
             offset="0"
             style="stop-color:#896954"
             id="stop104" /><stop
             offset="0.5"
             style="stop-color:#FFFFF4"
             id="stop106" /><stop
             offset="0.51"
             style="stop-color:#896954"
             id="stop108" /><stop
             offset="1"
             style="stop-color:#D5B79D"
             id="stop110" /></linearGradient><path
           class="st12"
           d="M23,0C10.4,0,0,10.4,0,23h3C3,12,12,3,23,3V0z"
           id="path112" /><linearGradient
           id="SVGID_8_"
           gradientUnits="userSpaceOnUse"
           x1="-166.0002"
           y1="778.5003"
           x2="210.9998"
           y2="778.5003"
           gradientTransform="matrix(1 0 0 -1 189.0002 780.0003)"><stop
             offset="0"
             style="stop-color:#D5B79D"
             id="stop115" /><stop
             offset="0.2389"
             style="stop-color:#FFF5D8"
             id="stop117" /><stop
             offset="0.7328"
             style="stop-color:#FFF5D8"
             id="stop119" /><stop
             offset="1"
             style="stop-color:#9E7F69"
             id="stop121" /></linearGradient><rect
           x="23"
           y="0"
           class="st13"
           width="377"
           height="3"
           id="rect123" /><linearGradient
           id="SVGID_9_"
           gradientUnits="userSpaceOnUse"
           x1="212.631"
           y1="178.369"
           x2="235.631"
           y2="201.369"
           gradientTransform="matrix(1 0 0 -1 189.0002 780.0003)"><stop
             offset="0"
             style="stop-color:#896954"
             id="stop126" /><stop
             offset="0.5"
             style="stop-color:#FFFFF4"
             id="stop128" /><stop
             offset="0.51"
             style="stop-color:#896954"
             id="stop130" /><stop
             offset="1"
             style="stop-color:#94755E"
             id="stop132" /></linearGradient><path
           class="st14"
           d="M400,600c12.7,0,23-10.3,23-23h-3c0,11-9,20-20,20V600z"
           id="path134" /><linearGradient
           id="SVGID_10_"
           gradientUnits="userSpaceOnUse"
           x1="-166.0002"
           y1="181.5003"
           x2="210.9998"
           y2="181.5003"
           gradientTransform="matrix(1 0 0 -1 189.0002 780.0003)"><stop
             offset="0"
             style="stop-color:#896954"
             id="stop137" /><stop
             offset="0.2308"
             style="stop-color:#FFF5D8"
             id="stop139" /><stop
             offset="0.7287"
             style="stop-color:#FFF5D8"
             id="stop141" /><stop
             offset="1"
             style="stop-color:#896954"
             id="stop143" /></linearGradient><rect
           x="23"
           y="597"
           class="st15"
           width="377"
           height="3"
           id="rect145" /><g
           id="g147"><linearGradient
             id="SVGID_11_"
             gradientUnits="userSpaceOnUse"
             x1="-186.5002"
             y1="203.0003"
             x2="-186.5002"
             y2="757.0003"
             gradientTransform="matrix(1 0 0 -1 189.0002 780.0003)"><stop
               offset="0"
               style="stop-color:#896954"
               id="stop150" /><stop
               offset="9.311740e-002"
               style="stop-color:#FFEBCF"
               id="stop152" /><stop
               offset="0.7895"
               style="stop-color:#FFEBCF"
               id="stop154" /><stop
               offset="1"
               style="stop-color:#9E7F69"
               id="stop156" /></linearGradient><rect
             x="2"
             y="23"
             class="st16"
             width="1"
             height="554"
             id="rect158" /><linearGradient
             id="SVGID_12_"
             gradientUnits="userSpaceOnUse"
             x1="-187.5002"
             y1="203.0003"
             x2="-187.5002"
             y2="757.0003"
             gradientTransform="matrix(1 0 0 -1 189.0002 780.0003)"><stop
               offset="0"
               style="stop-color:#896954"
               id="stop161" /><stop
               offset="9.311740e-002"
               style="stop-color:#FFF2D5"
               id="stop163" /><stop
               offset="0.7895"
               style="stop-color:#FFF2D5"
               id="stop165" /><stop
               offset="1"
               style="stop-color:#9E7F69"
               id="stop167" /></linearGradient><rect
             x="1"
             y="23"
             class="st17"
             width="1"
             height="554"
             id="rect169" /><linearGradient
             id="SVGID_13_"
             gradientUnits="userSpaceOnUse"
             x1="-188.5002"
             y1="203.0003"
             x2="-188.5002"
             y2="757.0003"
             gradientTransform="matrix(1 0 0 -1 189.0002 780.0003)"><stop
               offset="0"
               style="stop-color:#896954"
               id="stop172" /><stop
               offset="9.311740e-002"
               style="stop-color:#FEE1C5"
               id="stop174" /><stop
               offset="0.7895"
               style="stop-color:#FEE1C5"
               id="stop176" /><stop
               offset="1"
               style="stop-color:#9E7F69"
               id="stop178" /></linearGradient><rect
             x="0"
             y="23"
             class="st18"
             width="1"
             height="554"
             id="rect180" /></g><g
           id="g182"><linearGradient
             id="SVGID_14_"
             gradientUnits="userSpaceOnUse"
             x1="233.4998"
             y1="203.0003"
             x2="233.4998"
             y2="757.0003"
             gradientTransform="matrix(1 0 0 -1 189.0002 780.0003)"><stop
               offset="0"
               style="stop-color:#94755E"
               id="stop185" /><stop
               offset="5.000000e-002"
               style="stop-color:#FFEACE"
               id="stop187" /><stop
               offset="0.7895"
               style="stop-color:#FFEACE"
               id="stop189" /><stop
               offset="1"
               style="stop-color:#94755E"
               id="stop191" /></linearGradient><rect
             x="422"
             y="23"
             class="st19"
             width="1"
             height="554"
             id="rect193" /><linearGradient
             id="SVGID_15_"
             gradientUnits="userSpaceOnUse"
             x1="232.4998"
             y1="203.0003"
             x2="232.4998"
             y2="757.0003"
             gradientTransform="matrix(1 0 0 -1 189.0002 780.0003)"><stop
               offset="0"
               style="stop-color:#94755E"
               id="stop196" /><stop
               offset="5.000000e-002"
               style="stop-color:#FFEACE"
               id="stop198" /><stop
               offset="0.7895"
               style="stop-color:#FFEACE"
               id="stop200" /><stop
               offset="1"
               style="stop-color:#94755E"
               id="stop202" /></linearGradient><rect
             x="421"
             y="23"
             class="st20"
             width="1"
             height="554"
             id="rect204" /><linearGradient
             id="SVGID_16_"
             gradientUnits="userSpaceOnUse"
             x1="231.4998"
             y1="203.0003"
             x2="231.4998"
             y2="757.0003"
             gradientTransform="matrix(1 0 0 -1 189.0002 780.0003)"><stop
               offset="0"
               style="stop-color:#94755E"
               id="stop207" /><stop
               offset="3.643720e-002"
               style="stop-color:#FFEACE"
               id="stop209" /><stop
               offset="0.9231"
               style="stop-color:#FFEACE"
               id="stop211" /><stop
               offset="1"
               style="stop-color:#94755E"
               id="stop213" /></linearGradient><rect
             x="420"
             y="23"
             class="st21"
             width="1"
             height="554"
             id="rect215" /></g></g></g></g></svg>