<?xml version="1.0" encoding="UTF-8" standalone="no"?>
<!-- Generator: Adobe Illustrator 19.2.1, SVG Export Plug-In . SVG Version: 6.00 Build 0)  -->

<svg
   xmlns:dc="http://purl.org/dc/elements/1.1/"
   xmlns:cc="http://creativecommons.org/ns#"
   xmlns:rdf="http://www.w3.org/1999/02/22-rdf-syntax-ns#"
   xmlns:svg="http://www.w3.org/2000/svg"
   xmlns="http://www.w3.org/2000/svg"
   xmlns:sodipodi="http://sodipodi.sourceforge.net/DTD/sodipodi-0.dtd"
   xmlns:inkscape="http://www.inkscape.org/namespaces/inkscape"
   version="1.1"
   id="Layer_1"
   x="0px"
   y="0px"
   viewBox="0 0 726.49999 1297.459"
   xml:space="preserve"
   inkscape:version="0.91 r13725"
   sodipodi:docname="alternative-white.svg"
   width="726.5"
   height="1297.459"><metadata
     id="metadata25"><rdf:RDF><cc:Work
         rdf:about=""><dc:format>image/svg+xml</dc:format><dc:type
           rdf:resource="http://purl.org/dc/dcmitype/StillImage" /><dc:title></dc:title></cc:Work></rdf:RDF></metadata><defs
     id="defs23" /><sodipodi:namedview
     pagecolor="#ffffff"
     bordercolor="#666666"
     borderopacity="1"
     objecttolerance="10"
     gridtolerance="10"
     guidetolerance="10"
     inkscape:pageopacity="0"
     inkscape:pageshadow="2"
     inkscape:window-width="1920"
     inkscape:window-height="1017"
     id="namedview21"
     showgrid="false"
     inkscape:zoom="0.5381984"
     inkscape:cx="124.4"
     inkscape:cy="1408.4025"
     inkscape:window-x="-8"
     inkscape:window-y="-8"
     inkscape:window-maximized="1"
     inkscape:current-layer="Layer_1" /><style
     type="text/css"
     id="style3">
	.st0{fill:#FFFFFF;stroke:#BBBDBF;stroke-width:2;stroke-miterlimit:10;}
	.st1{fill:#070707;stroke:#BBBDBF;stroke-width:2;stroke-miterlimit:10;}
	.st2{fill:#BBBDBF;}
	.st3{fill:#BBBDBF;stroke:#BBBDBF;stroke-width:2;stroke-miterlimit:10;}
</style><g
     id="g5"
     transform="matrix(2.9713698,0,0,2.9881047,-5.5890284,-8.1154585)"><path
       class="st0"
       d="m 234.9,306.9 c 0,25.6 -20.8,46.4 -46.4,46.4 l -137.8,0 C 25.1,353.3 4.3,332.5 4.3,306.9 l 0,-175.2 c 0,-25.6 20.8,-46.4 46.4,-46.4 l 137.9,0 c 25.6,0 46.4,20.8 46.4,46.4 l 0,175.2 -0.1,0 z"
       id="path7"
       inkscape:connector-curvature="0"
       style="fill:#ffffff;stroke:#bbbdbf;stroke-width:2;stroke-miterlimit:10" /><path
       class="st1"
       d="m 225,305.5 c 0,20.2 -16.4,36.5 -36.5,36.5 L 50.8,342 C 30.6,342 14.3,325.6 14.3,305.5 l 0,-172.4 c 0,-20.2 16.4,-36.5 36.5,-36.5 l 137.7,0 c 20.2,0 36.5,16.4 36.5,36.5 l 0,172.4 z"
       id="path9"
       inkscape:connector-curvature="0"
       style="fill:#070707;stroke:#bbbdbf;stroke-width:2;stroke-miterlimit:10" /><path
       class="st2"
       d="m 235.3,220.4 -0.4,0 0,76.4 0.4,0 c 1.8,0 3.3,-1.5 3.3,-3.3 l 0,-69.8 c 0.1,-1.8 -1.4,-3.3 -3.3,-3.3 z"
       id="path11"
       inkscape:connector-curvature="0"
       style="fill:#bbbdbf" /><path
       class="st0"
       d="m 238.2,143.3 -3.3,0.1 c -4.8,5.3 -6.5,14.6 -6.5,25.3 0,10.7 1.7,20 6.5,25.3 l 3.3,0.1 c 4.7,0 8.6,-3.8 8.6,-8.6 l 0,-33.5 c 0,-4.9 -3.8,-8.7 -8.6,-8.7 l 0,0 z"
       id="path13"
       inkscape:connector-curvature="0"
       style="fill:#ffffff;stroke:#bbbdbf;stroke-width:2;stroke-miterlimit:10" /><path
       class="st3"
       d="m 239.4,143.4 0,50.5 c 4.2,-0.6 7.4,-4.2 7.4,-8.5 l 0,-33.5 c 0,-4.4 -3.2,-8 -7.4,-8.5 z"
       id="path15"
       inkscape:connector-curvature="0"
       style="fill:#bbbdbf;stroke:#bbbdbf;stroke-width:2;stroke-miterlimit:10" /><path
       class="st0"
       d="m 50.7,85.3 137.9,0 c 8.2,0 15.9,2.1 22.6,5.9 -4,-2.7 -14,-10.8 -15.6,-25.8 -1.3,-8.4 -4.5,-39.9 -5.4,-44.1 -0.7,-3 -2.3,-8.4 -10.9,-11.1 -5.6,-1.8 -16.5,-5.7 -46.4,-7 l -26.4,0 C 76.6,4.5 65.7,8.4 60.1,10.2 51.5,12.9 49.9,18.3 49.2,21.3 48.3,25.4 45.1,56.9 43.8,65.4 42.3,79.7 33,87.8 28.7,90.8 c 6.5,-3.5 14,-5.5 22,-5.5 l 0,0 z"
       id="path17"
       inkscape:connector-curvature="0"
       style="fill:#ffffff;stroke:#bbbdbf;stroke-width:2;stroke-miterlimit:10" /><path
       class="st0"
       d="m 188.6,353.3 -137.9,0 c -8.8,0 -17,-2.4 -24,-6.7 -0.1,-0.1 -0.2,-0.1 -0.3,-0.2 0,0 15.2,8 17.2,26.8 1.3,8.4 4.5,39.9 5.4,44.1 0.7,3 2.3,8.4 10.9,11.1 5.6,1.8 16.5,5.7 46.4,7 l 26.4,0 c 29.9,-1.3 40.8,-5.2 46.4,-7 8.6,-2.7 10.2,-8.1 10.9,-11.1 0.9,-4.1 4.1,-35.6 5.4,-44.1 1.6,-15.2 11.9,-23.4 15.7,-26 -6.6,3.9 -14.3,6.1 -22.5,6.1 l 0,0 z"
       id="path19"
       inkscape:connector-curvature="0"
       style="fill:#ffffff;stroke:#bbbdbf;stroke-width:2;stroke-miterlimit:10" /></g></svg>