<?xml version="1.0" encoding="UTF-8" standalone="no"?>
<!-- Generator: Adobe Illustrator 19.2.1, SVG Export Plug-In . SVG Version: 6.00 Build 0)  -->

<svg
   xmlns:dc="http://purl.org/dc/elements/1.1/"
   xmlns:cc="http://creativecommons.org/ns#"
   xmlns:rdf="http://www.w3.org/1999/02/22-rdf-syntax-ns#"
   xmlns:svg="http://www.w3.org/2000/svg"
   xmlns="http://www.w3.org/2000/svg"
   xmlns:sodipodi="http://sodipodi.sourceforge.net/DTD/sodipodi-0.dtd"
   xmlns:inkscape="http://www.inkscape.org/namespaces/inkscape"
   version="1.1"
   id="Layer_1"
   x="0px"
   y="0px"
   viewBox="0 0 726.5 1297.4585"
   xml:space="preserve"
   inkscape:version="0.91 r13725"
   sodipodi:docname="alternative-black.svg"
   width="726.5"
   height="1297.4585"><metadata
     id="metadata25"><rdf:RDF><cc:Work
         rdf:about=""><dc:format>image/svg+xml</dc:format><dc:type
           rdf:resource="http://purl.org/dc/dcmitype/StillImage" /><dc:title></dc:title></cc:Work></rdf:RDF></metadata><defs
     id="defs23" /><sodipodi:namedview
     pagecolor="#ffffff"
     bordercolor="#718466"
     borderopacity="0"
     objecttolerance="10"
     gridtolerance="10"
     guidetolerance="10"
     inkscape:pageopacity="0"
     inkscape:pageshadow="2"
     inkscape:window-width="1920"
     inkscape:window-height="1017"
     id="namedview21"
     showgrid="false"
     fit-margin-top="0"
     fit-margin-left="0"
     fit-margin-right="0"
     fit-margin-bottom="0"
     inkscape:zoom="0.38056374"
     inkscape:cx="204.90746"
     inkscape:cy="975.71464"
     inkscape:window-x="-8"
     inkscape:window-y="-8"
     inkscape:window-maximized="1"
     inkscape:current-layer="Layer_1"
     borderlayer="false" /><style
     type="text/css"
     id="style3">
	.st0{fill:#3F3F41;stroke:#3F3F41;stroke-width:2;stroke-miterlimit:10;}
	.st1{stroke:#3F3F41;stroke-width:2;stroke-miterlimit:10;}
	.st2{fill:#58585A;}
	.st3{fill:#FFFFFF;stroke:#3F3F41;stroke-width:2;stroke-miterlimit:10;}
	.st4{fill:#58585A;stroke:#3F3F41;stroke-width:2;stroke-miterlimit:10;}
</style><path
     style="fill:#3f3f41;stroke:#3f3f41;stroke-width:5.95944118;stroke-miterlimit:10"
     inkscape:connector-curvature="0"
     id="path7"
     d="m 687.62429,909.57314 c 0,76.49771 -61.80249,138.65206 -137.8671,138.65206 l -409.44153,0 c -76.06461,0 -137.8671047,-62.15435 -137.8671047,-138.65206 l 0,-523.53115 c 0,-76.4977 61.8024947,-138.65208 137.8671047,-138.65208 l 409.73866,0 c 76.06461,0 137.8671,62.15438 137.8671,138.65208 l 0,523.53115 -0.29713,0 z"
     class="st0" /><path
     style="stroke:#3f3f41;stroke-width:5.95944118;stroke-miterlimit:10"
     inkscape:connector-curvature="0"
     id="path9"
     d="m 658.20868,905.38968 c 0,60.36146 -48.72889,109.06902 -108.45149,109.06902 l -409.1444,0 c -60.019734,0 -108.451497,-49.00638 -108.451497,-109.06902 l 0,-515.16422 c 0,-60.36147 48.728891,-109.06899 108.451497,-109.06899 l 409.1444,0 c 60.01973,0 108.45149,49.00634 108.45149,109.06899 l 0,515.16422 z"
     class="st1" /><path
     style="fill:#58585a"
     inkscape:connector-curvature="0"
     id="path11"
     d="m 688.8128,651.09458 -1.18851,0 0,228.29783 1.18851,0 c 5.3483,0 9.80521,-4.48229 9.80521,-9.86103 l 0,-208.57577 c 0.29712,-5.37874 -4.15979,-9.86103 -9.80521,-9.86103 z"
     class="st2" /><path
     style="fill:#ffffff;stroke:#3f3f41;stroke-width:5.95944118;stroke-miterlimit:10"
     inkscape:connector-curvature="0"
     id="path13"
     d="m 694.17791,420.70501 -9.80521,0.29882 c -14.26211,15.83742 -19.31328,43.6276 -19.31328,75.60125 0,31.97365 5.05117,59.76383 19.31328,75.60124 l 9.80521,0.29882 c 13.96498,0 25.55295,-11.35513 25.55295,-25.69844 l 0,-100.10442 c 0,-14.64214 -11.29084,-25.99727 -25.55295,-25.99727 l 0,0 z"
     class="st3" /><path
     style="fill:#3f3f41;stroke:#3f3f41;stroke-width:5.95944118;stroke-miterlimit:10"
     inkscape:connector-curvature="0"
     id="path17"
     d="m 140.31566,247.38991 409.73866,0 c 24.36444,0 47.24325,6.2752 67.15078,17.63033 C 605.32001,256.95212 575.60727,232.74777 570.85323,187.9249 566.99058,162.82409 557.4825,68.696055 554.80835,56.145651 552.72846,47.181077 547.97443,31.044842 522.42147,22.976725 505.78234,17.597981 473.39545,5.9440338 384.55437,2.0593849 l -78.44163,0 C 217.27165,5.9440338 184.88477,17.597981 168.24563,22.976725 142.69268,31.044842 137.93864,47.181077 135.85875,56.145651 132.88748,68.397236 123.3794,162.52527 119.81387,187.62608 c -4.45691,43.02995 -32.089757,67.23431 -44.866234,76.19888 19.31328,-10.45867 41.597834,-16.43505 65.368024,-16.43505 l 0,0 z"
     class="st0" /><path
     style="fill:#3f3f41;stroke:#3f3f41;stroke-width:5.95944118;stroke-miterlimit:10"
     inkscape:connector-curvature="0"
     id="path19"
     d="m 550.05432,1048.2252 -409.73866,0 c -26.14721,0 -50.511655,-7.1716 -71.310572,-20.0209 -0.297127,-0.2988 -0.594254,-0.2988 -0.891382,-0.5976 0,0 45.163364,23.9055 51.105914,80.0835 3.86265,25.1008 13.37073,119.2289 16.04487,131.7793 2.0799,8.9646 6.83393,25.1008 32.38689,33.1689 16.63913,5.3788 49.02602,17.0327 137.8671,20.9174 l 78.44163,0 c 88.84109,-3.8847 121.22797,-15.5386 137.86711,-20.9174 25.55295,-8.0681 30.30699,-24.2043 32.38688,-33.1689 2.67415,-12.2516 12.18222,-106.3796 16.04488,-131.7793 4.75404,-45.4205 35.35816,-69.9236 46.649,-77.6929 -19.61041,11.6539 -42.48922,18.2279 -66.85366,18.2279 l 0,0 z"
     class="st0" /><path
     style="fill:#58585a;fill-opacity:1;stroke:#3f3f41;stroke-width:5.95944118;stroke-miterlimit:10"
     inkscape:connector-curvature="0"
     id="path13-0"
     d="m 696.69379,420.27399 -9.80521,0.29882 c -14.26211,15.83742 -19.31328,43.6276 -19.31328,75.60125 0,31.97365 5.05117,59.76383 19.31328,75.60124 l 9.80521,0.29882 c 13.96498,0 25.55295,-11.35513 25.55295,-25.69844 l 0,-100.10442 c 0,-14.64214 -11.29084,-25.99727 -25.55295,-25.99727 l 0,0 z"
     class="st3" /><path
     style="fill:#373739;fill-opacity:1"
     d="m 687.61155,574.65643 c -1.76246,-0.0773 -1.83042,-0.10242 -2.61072,-0.96611 -10.26028,-11.3569 -16.70838,-29.70342 -19.02749,-54.1381 -1.25688,-13.24279 -1.34953,-30.90103 -0.23178,-44.17592 2.18051,-25.89669 8.53002,-44.68188 19.13371,-56.60756 l 0.91527,-1.02939 5.99591,-0.20112 c 6.4586,-0.21665 8.98597,-0.0578 12.22048,0.76804 10.45231,2.66871 17.96678,10.53583 20.76451,21.73898 0.366,1.4656 0.40172,5.61661 0.47437,55.12006 0.0715,48.7277 0.0444,53.74265 -0.30183,55.84656 -1.00091,6.0819 -3.65298,11.19303 -8.08467,15.58094 -4.29541,4.25299 -9.33966,6.91254 -14.97436,7.89515 -1.85552,0.32358 -8.85162,0.40615 -14.2734,0.16847 z m 14.8186,-6.21102 c 7.80348,-1.97234 13.78151,-7.77999 16.31222,-15.84732 l 0.63983,-2.03964 0.0615,-53.41767 c 0.0549,-47.72865 0.0226,-53.62489 -0.30313,-55.3635 -1.81932,-9.70905 -9.27209,-16.90695 -19.03042,-18.37964 -1.30064,-0.19628 -3.32465,-0.22945 -6.79122,-0.11128 l -4.93837,0.16833 -1.48527,2.00394 c -9.62373,12.98441 -14.74795,32.03743 -15.9364,59.25514 -1.05878,24.24784 1.1852,47.01817 6.157,62.47696 2.58668,8.04275 6.75267,16.23161 10.48354,20.60692 l 1.03477,1.21351 3.64506,0.0817 c 5.22422,0.11708 7.76801,-0.0452 10.15091,-0.64745 z"
     id="path4263"
     inkscape:connector-curvature="0" /><path
     style="opacity:1;fill:#373739;fill-opacity:1"
     d=""
     id="path4159"
     inkscape:connector-curvature="0" /><path
     style="opacity:1;fill:#373739;fill-opacity:1"
     d=""
     id="path4161"
     inkscape:connector-curvature="0" /><path
     style="opacity:1;fill:#373739;fill-opacity:1"
     d=""
     id="path4163"
     inkscape:connector-curvature="0" /><path
     style="opacity:1;fill:#373739;fill-opacity:1"
     d="m 698.41664,496.21129 0,-78.15426 1.36184,0 c 2.75096,0 6.12607,0.95927 10.13485,2.88051 6.44296,3.08785 10.60775,7.78886 14.14392,15.96494 l 1.06887,2.47137 -0.006,52.34113 c -0.003,29.3886 -0.10096,54.1367 -0.22313,56.43577 -0.11967,2.25205 -0.38487,4.83015 -0.58934,5.7291 -0.45015,1.97918 -2.71186,6.60741 -4.16573,8.5245 -1.39093,1.83411 -4.99419,5.4559 -6.7452,6.77988 -3.26995,2.4725 -10.50972,5.17473 -13.87732,5.1797 l -1.10322,0.002 0,-78.15427 z"
     id="path4187"
     inkscape:connector-curvature="0" /></svg>