<?xml version="1.0" encoding="UTF-8" standalone="no"?>
<!-- Generator: Adobe Illustrator 19.2.1, SVG Export Plug-In . SVG Version: 6.00 Build 0)  -->

<svg
   xmlns:dc="http://purl.org/dc/elements/1.1/"
   xmlns:cc="http://creativecommons.org/ns#"
   xmlns:rdf="http://www.w3.org/1999/02/22-rdf-syntax-ns#"
   xmlns:svg="http://www.w3.org/2000/svg"
   xmlns="http://www.w3.org/2000/svg"
   xmlns:sodipodi="http://sodipodi.sourceforge.net/DTD/sodipodi-0.dtd"
   xmlns:inkscape="http://www.inkscape.org/namespaces/inkscape"
   id="Layer_1"
   xml:space="preserve"
   viewBox="0 0 2758.2 2228.3"
   version="1.1"
   y="0px"
   x="0px"
   inkscape:version="0.91 r13725"
   sodipodi:docname="black.svg"
   width="2758.2"
   height="2228.3"><metadata
     id="metadata29"><rdf:RDF><cc:Work
         rdf:about=""><dc:format>image/svg+xml</dc:format><dc:type
           rdf:resource="http://purl.org/dc/dcmitype/StillImage" /><dc:title></dc:title></cc:Work></rdf:RDF></metadata><defs
     id="defs27" /><sodipodi:namedview
     pagecolor="#ffffff"
     bordercolor="#666666"
     borderopacity="1"
     objecttolerance="10"
     gridtolerance="10"
     guidetolerance="10"
     inkscape:pageopacity="0"
     inkscape:pageshadow="2"
     inkscape:window-width="1920"
     inkscape:window-height="1017"
     id="namedview25"
     showgrid="false"
     inkscape:zoom="0.29533284"
     inkscape:cx="2277.2155"
     inkscape:cy="1103.9769"
     inkscape:window-x="-8"
     inkscape:window-y="-8"
     inkscape:window-maximized="1"
     inkscape:current-layer="Layer_1" /><style
     type="text/css"
     id="style3">
	.st0{fill:#3F3F41;stroke:#3F3F41;stroke-width:2;stroke-miterlimit:10;}
	.st1{fill:#58585A;stroke:#58585A;stroke-width:2;stroke-miterlimit:10;}
	.st2{fill:#58585A;}
	.st3{fill-rule:evenodd;clip-rule:evenodd;fill:#3F3F41;}
	.st4{fill:#FFFFFF;stroke:#3F3F41;stroke-width:2;stroke-miterlimit:10;}
</style><path
     class="st0"
     d="m 2757.2,1644 0,-1576.699998 c 0,-36.6 -29.7,-66.2999997 -66.3,-66.2999997 l -2623.6,0 C 30.7,1.0000023 1,30.700002 1,67.300002 L 1,1644 l 2756.2,0 z"
     id="path9"
     inkscape:connector-curvature="0"
     style="fill:#3f3f41;stroke:#3f3f41;stroke-width:2;stroke-miterlimit:10" /><path
     class="st1"
     d="m 1,1644 0,192.9 c 0,36.6 29.7,66.3 66.3,66.3 l 2623.5,0 c 36.6,0 66.3,-29.7 66.3,-66.3 l 0,-192.9 L 1,1644 Z"
     id="path11"
     inkscape:connector-curvature="0"
     style="fill:#58585a;stroke:#58585a;stroke-width:2;stroke-miterlimit:10" /><path
     class="st1"
     d="m 1782.4,2216.5 -804.9,0 c -33.2,-1.3 -45.9,-10.7 -45.9,-10.7 l 0,8.7 c 0,0 7.3,8.6 20.7,10.7 14.9,2.3 25.2,2 25.2,2 l 804.9,0 c 0,0 10.3,0.3 25.2,-2 13.4,-2.1 20.7,-10.7 20.7,-10.7 l 0,-8.7 c -0.1,0 -12.7,9.4 -45.9,10.7 z"
     id="path13"
     inkscape:connector-curvature="0"
     style="fill:#58585a;stroke:#58585a;stroke-width:2;stroke-miterlimit:10" /><path
     class="st2"
     d="m 1389.1,43.600002 c 0,5.3 -4.3,9.6 -9.6,9.6 -5.3,0 -9.6,-4.3 -9.6,-9.6 0,-5.3 4.3,-9.6 9.6,-9.6 5.3,0 9.6,4.3 9.6,9.6"
     id="path15"
     inkscape:connector-curvature="0"
     style="fill:#58585a" /><path
     class="st3"
     d="m 1430.9,1801.8 c -4.3,-1.7 -7.5,-4.8 -10.2,-8.5 -4.6,-6.2 -6.6,-13.2 -5.9,-20.9 0.6,-6.8 3.5,-12.6 8.3,-17.5 1.8,-1.8 3.7,-3.6 5.6,-5.4 -0.8,-0.9 -1.5,-1.7 -2.3,-2.6 -3.7,-4.1 -8,-7.3 -13.4,-9 -6.3,-2 -12.6,-1.7 -18.9,0.2 -3.5,1 -6.9,2.1 -10.3,3.2 -3,0.9 -6,0.9 -9.1,0.1 -1.7,-0.5 -3.5,-0.9 -5.2,-1.4 -4.4,-1.3 -8.8,-2.5 -13.3,-2.7 -6.5,-0.3 -12.5,1.3 -17.6,5.4 -6.2,4.9 -10.1,11.4 -12.3,18.9 -2.8,9.6 -2.8,19.4 -0.9,29.1 2.6,13.4 8.4,25.4 16.5,36.3 2.4,3.2 5.2,6.1 8.7,8.2 3.3,2 7,3 10.8,2.1 2.7,-0.7 5.4,-1.7 8.1,-2.7 3.5,-1.3 7.1,-2.4 10.9,-2.3 2.5,0.1 5,0.5 7.3,1.3 3.3,1 6.6,2.1 9.9,3.1 5.6,1.6 10.7,0.3 15.1,-3.3 1.3,-1.1 2.7,-2.2 3.8,-3.5 6.2,-6.7 10.7,-14.5 14.2,-22.9 0.6,-1.5 1.1,-3 1.7,-4.5 -0.5,-0.3 -1,-0.5 -1.5,-0.7 z"
     id="path17"
     inkscape:connector-curvature="0"
     style="clip-rule:evenodd;fill:#3f3f41;fill-rule:evenodd" /><path
     class="st3"
     d="m 1385.8,1737.2 c 3.3,-1.2 5.9,-3.5 8.3,-6 5.6,-5.9 8.7,-12.9 8.8,-21.1 0,-1 -0.2,-2 -0.3,-3 -16.7,3.3 -25.3,14.8 -25.7,31.8 0.9,-0.1 1.8,-0.1 2.6,-0.3 2.1,-0.4 4.3,-0.7 6.3,-1.4 z"
     id="path19"
     inkscape:connector-curvature="0"
     style="clip-rule:evenodd;fill:#3f3f41;fill-rule:evenodd" /><path
     class="st0"
     d="m 1819.2,2192.8 c 0,0 -68.7,-54.5 -86.6,-69.5 -33.5,-25.1 -38.5,-109.9 -38.5,-109.9 l -12.1,-110.3 -604.3,0 -12.1,110.3 c 0,0 -5,84.7 -38.5,109.9 -17.8,15 -86.6,69.5 -86.6,69.5 0,0 -10.4,8 -8.9,13 1.5,5 12.7,9.4 45.9,10.7 l 804.7,0 c 33.2,-1.3 45.9,-10.7 45.9,-10.7 1.6,-5 -8.9,-13 -8.9,-13 z"
     id="path23"
     inkscape:connector-curvature="0"
     style="fill:#3f3f41;stroke:#3f3f41;stroke-width:2;stroke-miterlimit:10" /></svg>