<?xml version="1.0" encoding="UTF-8" standalone="no"?>
<!-- Generator: Adobe Illustrator 19.2.1, SVG Export Plug-In . SVG Version: 6.00 Build 0)  -->

<svg
   xmlns:dc="http://purl.org/dc/elements/1.1/"
   xmlns:cc="http://creativecommons.org/ns#"
   xmlns:rdf="http://www.w3.org/1999/02/22-rdf-syntax-ns#"
   xmlns:svg="http://www.w3.org/2000/svg"
   xmlns="http://www.w3.org/2000/svg"
   xmlns:sodipodi="http://sodipodi.sourceforge.net/DTD/sodipodi-0.dtd"
   xmlns:inkscape="http://www.inkscape.org/namespaces/inkscape"
   version="1.1"
   id="Layer_1"
   x="0px"
   y="0px"
   viewBox="0 0 606.20072 298.41"
   xml:space="preserve"
   inkscape:version="0.91 r13725"
   sodipodi:docname="alternative-black-landscape.svg"
   width="606.20074"
   height="298.41"><metadata
     id="metadata31"><rdf:RDF><cc:Work
         rdf:about=""><dc:format>image/svg+xml</dc:format><dc:type
           rdf:resource="http://purl.org/dc/dcmitype/StillImage" /><dc:title></dc:title></cc:Work></rdf:RDF></metadata><defs
     id="defs29" /><sodipodi:namedview
     pagecolor="#ffffff"
     bordercolor="#666666"
     borderopacity="1"
     objecttolerance="10"
     gridtolerance="10"
     guidetolerance="10"
     inkscape:pageopacity="0"
     inkscape:pageshadow="2"
     inkscape:window-width="1920"
     inkscape:window-height="1017"
     id="namedview27"
     showgrid="false"
     fit-margin-top="0"
     fit-margin-left="0"
     fit-margin-right="0"
     fit-margin-bottom="0"
     inkscape:zoom="1.3798049"
     inkscape:cx="328.93321"
     inkscape:cy="78.814997"
     inkscape:window-x="-8"
     inkscape:window-y="-8"
     inkscape:window-maximized="1"
     inkscape:current-layer="Layer_1"
     borderlayer="true" /><style
     type="text/css"
     id="style3">
	.st0{fill:#3F3F41;stroke:#3F3F41;stroke-width:2;stroke-miterlimit:10;}
	.st1{fill:#58585A;}
	.st2{fill:none;stroke:#58585A;stroke-width:4;stroke-miterlimit:10;}
	.st3{fill:#FFFFFF;stroke:#3F3F41;stroke-width:2;stroke-miterlimit:10;}
</style><g
     id="g5"
     transform="matrix(0.7260753,0,0,0.75432255,2.673818e-4,0)"><path
       class="st0"
       d="M 1,64.6 C 1.1,16.9 28.3,3.9 54.5,3.9 l 726.4,2.4 c 25.8,0 53.1,5.6 53,59.5 l -0.4,267 c -0.1,60.9 -38.7,60.3 -54.5,60.3 L 54.7,392.6 C 28.7,392.6 1,370.7 1.1,336.2 L 1,64.6 l 0,0 z"
       id="path7"
       inkscape:connector-curvature="0"
       style="fill:#3f3f41;stroke:#3f3f41;stroke-width:2;stroke-miterlimit:10" /><path
       class="st1"
       d="m 51.5,250.8 c 3.2,0 5.7,2.6 5.7,5.7 0,3.2 -2.6,5.7 -5.7,5.7 -3.2,0 -5.7,-2.6 -5.7,-5.7 -0.1,-3.1 2.5,-5.7 5.7,-5.7"
       id="path9"
       inkscape:connector-curvature="0"
       style="fill:#58585a" /><path
       class="st1"
       d="m 23,194.7 c 2.3,0 4.1,1.9 4.1,4.2 0,2.3 -1.9,4.1 -4.2,4.1 -2.3,0 -4.1,-1.9 -4.1,-4.2 0,-2.3 1.9,-4.1 4.2,-4.1"
       id="path11"
       inkscape:connector-curvature="0"
       style="fill:#58585a" /><path
       class="st1"
       d="m 51.7,168.6 c -1.7,0 -3.1,1 -3.1,2.2 l -0.1,53.4 c 0,1.2 1.3,2.2 3.1,2.2 1.7,0 3.1,-1 3.1,-2.2 l 0.1,-53.4 c 0,-1.2 -1.3,-2.2 -3.1,-2.2 l 0,0 z"
       id="path13"
       inkscape:connector-curvature="0"
       style="fill:#58585a" /><ellipse
       transform="matrix(0.0013257,-1,1,0.0013257,584.9811,983.2554)"
       class="st2"
       cx="784.79999"
       cy="198.7"
       id="ellipse15"
       style="fill:none;stroke:#58585a;stroke-width:4;stroke-miterlimit:10"
       rx="29.5"
       ry="31.237345" /><path
       class="st1"
       d="m 213.2,0.1 c 0.9,0 2.1,1.1 2.1,2.3 l 0,0.4 c 0,1.2 -1.2,1.4 -2.1,1.4 L 159.5,4.1 c -0.9,0 -1.8,-0.2 -1.8,-1.4 l 0,-0.4 c 0,-1.2 1,-2.3 1.8,-2.3 l 53.7,0.1 z"
       id="path17"
       inkscape:connector-curvature="0"
       style="fill:#58585a" /><path
       class="st1"
       d="m 136.4,393.5 c 0.6,0 1,0.4 1,1 l 0,0.2 c 0,0.6 -0.4,0.7 -1,0.7 l -39.1,-0.1 c -0.6,0 -1.8,-0.1 -1.8,-0.7 l 0,-0.2 c 0,-0.6 1.1,-1 1.8,-1 l 39.1,0.1 z"
       id="path19"
       inkscape:connector-curvature="0"
       style="fill:#58585a" /><path
       class="st1"
       d="m 289.5,393.8 c 0.9,0 1.3,0.4 1.3,1 l 0,0.1 c 0,0.6 -0.5,0.7 -1.3,0.7 l -53.6,-0.1 c -0.9,0 -1.8,-0.1 -1.8,-0.7 l 0,-0.2 c 0,-0.6 0.9,-1 1.8,-1 l 53.6,0.2 z"
       id="path21"
       inkscape:connector-curvature="0"
       style="fill:#58585a" /><path
       class="st1"
       d="m 212.8,393.7 c 0.9,0 1.9,0.4 1.9,1 l 0,0.1 c 0,0.6 -1,0.7 -1.9,0.7 l -53.6,-0.1 c -0.9,0 -2.2,-0.1 -2.2,-0.7 l 0,-0.2 c 0,-0.6 1.3,-1 2.2,-1 l 53.6,0.2 0,0 z"
       id="path23"
       inkscape:connector-curvature="0"
       style="fill:#58585a" /></g></svg>