<?xml version="1.0" encoding="UTF-8" standalone="no"?>
<!-- Generator: Adobe Illustrator 19.2.1, SVG Export Plug-In . SVG Version: 6.00 Build 0)  -->

<svg
   xmlns:dc="http://purl.org/dc/elements/1.1/"
   xmlns:cc="http://creativecommons.org/ns#"
   xmlns:rdf="http://www.w3.org/1999/02/22-rdf-syntax-ns#"
   xmlns:svg="http://www.w3.org/2000/svg"
   xmlns="http://www.w3.org/2000/svg"
   xmlns:sodipodi="http://sodipodi.sourceforge.net/DTD/sodipodi-0.dtd"
   xmlns:inkscape="http://www.inkscape.org/namespaces/inkscape"
   version="1.1"
   id="Layer_1"
   x="0px"
   y="0px"
   viewBox="0 0 606.1 298.5"
   style="enable-background:new 0 0 606.1 298.5;"
   xml:space="preserve"
   inkscape:version="0.91 r13725"
   sodipodi:docname="rose-landscape.svg"><metadata
     id="metadata30"><rdf:RDF><cc:Work
         rdf:about=""><dc:format>image/svg+xml</dc:format><dc:type
           rdf:resource="http://purl.org/dc/dcmitype/StillImage" /></cc:Work></rdf:RDF></metadata><defs
     id="defs28" /><sodipodi:namedview
     pagecolor="#ffffff"
     bordercolor="#666666"
     borderopacity="1"
     objecttolerance="10"
     gridtolerance="10"
     guidetolerance="10"
     inkscape:pageopacity="0"
     inkscape:pageshadow="2"
     inkscape:window-width="1920"
     inkscape:window-height="1017"
     id="namedview26"
     showgrid="false"
     inkscape:zoom="1.9006765"
     inkscape:cx="427.7187"
     inkscape:cy="12.032673"
     inkscape:window-x="-8"
     inkscape:window-y="-8"
     inkscape:window-maximized="1"
     inkscape:current-layer="Layer_1" /><style
     type="text/css"
     id="style3">
	.st0{fill:#E6BBB5;}
	.st1{fill:#F7F7F7;}
	.st2{fill:#3E3E3E;}
	.st3{fill:#387684;}
</style><g
     id="Backgrounds" /><g
     id="Shadows" /><g
     id="Phones"><g
       id="g8"><path
         class="st0"
         d="M127.8,1.6v0.6H44.2C19.9,2.2,0,22.1,0,46.4l0,205.7c0,24.4,19.9,44.3,44.2,44.3h32.1v0.6    c0,0.8,0.7,1.5,1.5,1.5h21.5c0.8,0,1.5-0.7,1.5-1.5v-0.7h27.6v0.7c0,0.8,0.7,1.5,1.5,1.5h42c0.8,0,1.5-0.7,1.5-1.5v-0.7h10.4v0.7    c0,0.8,0.7,1.5,1.5,1.5h41.9c0.8,0,1.5-0.7,1.5-1.5v-0.7h333.2c24.3,0,44.2-19.9,44.2-44.2V46.3c0-24.3-19.9-44.2-44.2-44.2h-389    V1.5c0-0.8-0.7-1.5-1.5-1.5l-42.1,0C128.5,0.1,127.8,0.8,127.8,1.6z"
         id="path10" /><path
         class="st1"
         d="M561.8,6.6c21.9,0,39.8,17.9,39.8,39.8v205.7c0,21.9-17.9,39.8-39.8,39.8H44.2c-21.9,0-39.8-17.9-39.8-39.8    V46.3c0-21.9,17.9-39.8,39.8-39.8L561.8,6.6L561.8,6.6z"
         id="path12" /><path
         class="st2"
         d="M39.5,127.3v43.1c0,1-0.8,1.7-1.7,1.7h-0.4c-1,0-1.7-0.8-1.7-1.7v-43.1c0-1,0.8-1.7,1.7-1.7h0.4    C38.7,125.6,39.5,126.4,39.5,127.3L39.5,127.3z"
         id="path14" /><ellipse
         class="st2"
         cx="37.6"
         cy="196.6"
         rx="2.7"
         ry="2.7"
         id="ellipse20" /><path
         class="st0"
         d="M565.8,126.3c12.9,0,23.4,10.5,23.4,23.4s-10.5,23.4-23.4,23.4s-23.4-10.5-23.4-23.4S552.9,126.3,565.8,126.3    z"
         id="path22" /><ellipse
         class="st1"
         cx="565.8"
         cy="149.8"
         rx="21"
         ry="21"
         id="ellipse24" /></g></g></svg>