<?xml version="1.0" encoding="UTF-8" standalone="no"?>
<!-- Generator: Adobe Illustrator 19.2.1, SVG Export Plug-In . SVG Version: 6.00 Build 0)  -->

<svg
   xmlns:dc="http://purl.org/dc/elements/1.1/"
   xmlns:cc="http://creativecommons.org/ns#"
   xmlns:rdf="http://www.w3.org/1999/02/22-rdf-syntax-ns#"
   xmlns:svg="http://www.w3.org/2000/svg"
   xmlns="http://www.w3.org/2000/svg"
   xmlns:sodipodi="http://sodipodi.sourceforge.net/DTD/sodipodi-0.dtd"
   xmlns:inkscape="http://www.inkscape.org/namespaces/inkscape"
   version="1.1"
   id="Layer_1"
   x="0px"
   y="0px"
   viewBox="0 0 606.2 298.4"
   style="enable-background:new 0 0 606.2 298.4;"
   xml:space="preserve"
   inkscape:version="0.91 r13725"
   sodipodi:docname="space-grey-landscape.svg"><metadata
     id="metadata30"><rdf:RDF><cc:Work
         rdf:about=""><dc:format>image/svg+xml</dc:format><dc:type
           rdf:resource="http://purl.org/dc/dcmitype/StillImage" /></cc:Work></rdf:RDF></metadata><defs
     id="defs28" /><sodipodi:namedview
     pagecolor="#ffffff"
     bordercolor="#666666"
     borderopacity="1"
     objecttolerance="10"
     gridtolerance="10"
     guidetolerance="10"
     inkscape:pageopacity="0"
     inkscape:pageshadow="2"
     inkscape:window-width="1920"
     inkscape:window-height="1017"
     id="namedview26"
     showgrid="false"
     inkscape:zoom="1.9003629"
     inkscape:cx="287.41951"
     inkscape:cy="133.42279"
     inkscape:window-x="-8"
     inkscape:window-y="-8"
     inkscape:window-maximized="1"
     inkscape:current-layer="Layer_1" /><style
     type="text/css"
     id="style3">
	.st0{fill:#656F72;}
	.st1{fill:#232322;}
	.st2{fill:#5B5F60;}
	.st3{fill:#0E1011;}
	.st4{fill:#387684;}
</style><g
     id="Backgrounds" /><g
     id="Shadows" /><g
     id="Phones"><g
       id="g8"><path
         class="st0"
         d="M127.8,1.4V2H44.2C19.9,2,0,21.9,0,46.2L0,252c0,24.3,19.9,44.2,44.2,44.2h32.1v0.7c0,0.8,0.7,1.5,1.5,1.5    h21.5c0.8,0,1.5-0.7,1.5-1.5v-0.7h27.6v0.7c0,0.8,0.7,1.5,1.5,1.5h42c0.8,0,1.5-0.7,1.5-1.5v-0.7h10.4v0.7c0,0.8,0.7,1.5,1.5,1.5    h41.9c0.8,0,1.5-0.7,1.5-1.5v-0.7H562c24.3,0,44.2-19.9,44.2-44.2V46.3c0-24.3-19.9-44.2-44.2-44.2H172.9V1.5    c0-0.8-0.7-1.5-1.5-1.5l-42.1,0C128.5-0.1,127.8,0.6,127.8,1.4z"
         id="path10" /><path
         class="st1"
         d="M561.8,6.4c21.9,0,39.8,17.9,39.8,39.8V252c0,21.9-17.9,39.8-39.8,39.8H44.2c-21.9,0-39.8-17.9-39.8-39.8    V46.3c0-21.9,17.9-39.9,39.8-39.9H561.8z"
         id="path12" /><path
         class="st2"
         d="M39.5,127.2v43.1c0,1-0.8,1.7-1.7,1.7h-0.4c-1,0-1.7-0.8-1.7-1.7v-43.1c0-1,0.8-1.7,1.7-1.7h0.4    C38.7,125.4,39.5,126.2,39.5,127.2L39.5,127.2z"
         id="path14" /><circle
         class="st2"
         cx="37.6"
         cy="196.4"
         r="2.7"
         id="circle20" /><ellipse
         class="st2"
         cx="565.8"
         cy="149.6"
         rx="23.4"
         ry="23.4"
         id="ellipse22" /><ellipse
         class="st1"
         cx="565.8"
         cy="149.6"
         rx="21"
         ry="21"
         id="ellipse24" /></g></g></svg>