<?xml version="1.0" encoding="UTF-8" standalone="no"?>
<!-- Generator: Adobe Illustrator 19.2.1, SVG Export Plug-In . SVG Version: 6.00 Build 0)  -->

<svg
   xmlns:dc="http://purl.org/dc/elements/1.1/"
   xmlns:cc="http://creativecommons.org/ns#"
   xmlns:rdf="http://www.w3.org/1999/02/22-rdf-syntax-ns#"
   xmlns:svg="http://www.w3.org/2000/svg"
   xmlns="http://www.w3.org/2000/svg"
   xmlns:sodipodi="http://sodipodi.sourceforge.net/DTD/sodipodi-0.dtd"
   xmlns:inkscape="http://www.inkscape.org/namespaces/inkscape"
   version="1.1"
   id="Layer_1"
   x="0px"
   y="0px"
   viewBox="0 0 600 422.99999"
   xml:space="preserve"
   inkscape:version="0.91 r13725"
   sodipodi:docname="white-landscape.svg"
   width="600"
   height="423"><metadata
     id="metadata19"><rdf:RDF><cc:Work
         rdf:about=""><dc:format>image/svg+xml</dc:format><dc:type
           rdf:resource="http://purl.org/dc/dcmitype/StillImage" /><dc:title></dc:title></cc:Work></rdf:RDF></metadata><defs
     id="defs17" /><sodipodi:namedview
     pagecolor="#ffffff"
     bordercolor="#666666"
     borderopacity="1"
     objecttolerance="10"
     gridtolerance="10"
     guidetolerance="10"
     inkscape:pageopacity="0"
     inkscape:pageshadow="2"
     inkscape:window-width="1108"
     inkscape:window-height="755"
     id="namedview15"
     showgrid="false"
     inkscape:zoom="0.23113965"
     inkscape:cx="623"
     inkscape:cy="421.20001"
     inkscape:window-x="0"
     inkscape:window-y="0"
     inkscape:window-maximized="0"
     inkscape:current-layer="Layer_1" /><style
     type="text/css"
     id="style3">
	.st0{fill:#FFFFFF;stroke:#BBBDBF;stroke-width:2;stroke-miterlimit:10;}
	.st1{fill:none;stroke:#BBBDBF;stroke-width:4;stroke-miterlimit:10;}
	.st2{fill:#BBBDBF;}
</style><g
     id="g5"
     transform="matrix(0.48154102,0,0,0.5021372,0.07226603,0.0995646)"><path
       class="st0"
       d="M 1,63.8 C 1,14.5 29.1,1 56.2,1 l 1133.9,1.4 c 26.6,0 54.9,5.7 54.9,61.5 l 0,714.6 c 0,62.9 -39.9,62.4 -56.3,62.4 L 57,841.4 C 30.2,841.4 1.5,818.8 1.5,783.1 L 1,63.8 Z"
       id="path7"
       inkscape:connector-curvature="0"
       style="fill:#ffffff;stroke:#bbbdbf;stroke-width:2;stroke-miterlimit:10" /><circle
       class="st1"
       cx="1184.8"
       cy="421.20001"
       r="31.1"
       id="circle11"
       style="fill:none;stroke:#bbbdbf;stroke-width:4;stroke-miterlimit:10" /><path
       class="st2"
       d="m 65.3,412.2 c 5,0 9,4 9,9 0,5 -4,9 -9,9 -5,0 -9,-4 -9,-9 0,-5 4,-9 9,-9"
       id="path13"
       inkscape:connector-curvature="0"
       style="fill:#bbbdbf" /></g></svg>