<?xml version="1.0" encoding="UTF-8" standalone="no"?>
<!-- Generator: Adobe Illustrator 19.2.1, SVG Export Plug-In . SVG Version: 6.00 Build 0)  -->

<svg
   xmlns:dc="http://purl.org/dc/elements/1.1/"
   xmlns:cc="http://creativecommons.org/ns#"
   xmlns:rdf="http://www.w3.org/1999/02/22-rdf-syntax-ns#"
   xmlns:svg="http://www.w3.org/2000/svg"
   xmlns="http://www.w3.org/2000/svg"
   xmlns:sodipodi="http://sodipodi.sourceforge.net/DTD/sodipodi-0.dtd"
   xmlns:inkscape="http://www.inkscape.org/namespaces/inkscape"
   id="Layer_1"
   xml:space="preserve"
   viewBox="0 0 1444.9 830.1002"
   version="1.1"
   y="0px"
   x="0px"
   inkscape:version="0.91 r13725"
   sodipodi:docname="alternative-white.svg"
   width="1444.8999"
   height="830.10022"><metadata
     id="metadata29"><rdf:RDF><cc:Work
         rdf:about=""><dc:format>image/svg+xml</dc:format><dc:type
           rdf:resource="http://purl.org/dc/dcmitype/StillImage" /><dc:title></dc:title></cc:Work></rdf:RDF></metadata><defs
     id="defs27" /><sodipodi:namedview
     pagecolor="#ffffff"
     bordercolor="#666666"
     borderopacity="1"
     objecttolerance="10"
     gridtolerance="10"
     guidetolerance="10"
     inkscape:pageopacity="0"
     inkscape:pageshadow="2"
     inkscape:window-width="1920"
     inkscape:window-height="1017"
     id="namedview25"
     showgrid="false"
     showborder="false"
     inkscape:zoom="0.32236616"
     inkscape:cx="1428.3731"
     inkscape:cy="74.656925"
     inkscape:window-x="-8"
     inkscape:window-y="-8"
     inkscape:window-maximized="1"
     inkscape:current-layer="Layer_1" /><style
     type="text/css"
     id="style3">
	.st0{fill:#FFFFFF;stroke:#BBBDBF;stroke-width:2;stroke-miterlimit:10;}
	.st1{fill:#BBBDBF;}
</style><path
     class="st0"
     d="m 1262.2392,801.98014 0,-757.284089 c 0,-24.34395 -18.0691,-44.13121091 -40.4267,-44.13121091 l -998.83324,0 c -22.30049,0 -40.42678,19.72484091 -40.42678,44.13121091 l 0,757.284089 1079.68672,0 z"
     id="path9"
     inkscape:connector-curvature="0"
     style="fill:#ffffff;stroke:#bbbdbf;stroke-width:1.19486296;stroke-miterlimit:10" /><path
     class="st1"
     d="m 729.37191,45.320254 c 0,4.182166 -3.08776,7.552867 -6.91887,7.552867 -3.8311,0 -6.91886,-3.370701 -6.91886,-7.552867 0,-4.182165 3.08776,-7.552866 6.91886,-7.552866 3.77393,-0.06242 6.91887,3.370701 6.91887,7.552866"
     id="path13"
     inkscape:connector-curvature="0"
     style="fill:#bbbdbf" /><rect
     y="801.98016"
     x="0.54617715"
     height="4.244586"
     class="st0"
     width="1443.7565"
     id="rect15"
     style="fill:#ffffff;stroke:#bbbdbf;stroke-width:1.19486296;stroke-miterlimit:10" /><path
     class="st0"
     d="m 740.12189,806.22472 -739.57571286,0 c 0,0 110.53037286,24.21911 222.37590286,23.15797 5.60372,-0.0624 22.35767,0 22.35767,0 l 954.34655,0 c 0,0 16.754,-0.0624 22.3577,0 111.8455,0.99872 222.3759,-23.15797 222.3759,-23.15797 l -704.23801,0 z"
     id="path17"
     inkscape:connector-curvature="0"
     style="fill:#ffffff;stroke:#bbbdbf;stroke-width:1.19486296;stroke-miterlimit:10" /><path
     class="st1"
     d="m 971.07491,816.21198 0,-0.3121 c 0,-2.18471 -1.60106,-3.93248 -3.60239,-3.93248 l -10.69279,0 c -2.00133,0 -3.60239,1.74777 -3.60239,3.93248 l 0,0.3121 17.89757,0 z"
     id="path19"
     inkscape:connector-curvature="0"
     style="fill:#bbbdbf" /><path
     class="st1"
     d="m 491.67157,816.21198 c 0,-0.12484 0.0572,-0.18726 0.0572,-0.3121 0,-2.18471 -1.60106,-3.93248 -3.60239,-3.93248 l -10.69279,0 c -2.00133,0 -3.60239,1.74777 -3.60239,3.93248 l 0,0.3121 17.84039,0 z"
     id="path21"
     inkscape:connector-curvature="0"
     style="fill:#bbbdbf" /><path
     class="st1"
     d="m 763.33728,801.98014 -164.2231,0 0,4.11974 c 0,0 7.03324,4.11975 19.21273,4.11975 l 4.57446,0 199.16053,0 4.57446,0 c 12.17949,0.0624 19.21273,-4.11975 19.21273,-4.11975 l 0,-4.11974 -82.51181,0 z"
     id="path23"
     inkscape:connector-curvature="0"
     style="fill:#bbbdbf" /></svg>