<?xml version="1.0" encoding="UTF-8" standalone="no"?>
<!-- Generator: Adobe Illustrator 19.2.1, SVG Export Plug-In . SVG Version: 6.00 Build 0)  -->

<svg
   xmlns:dc="http://purl.org/dc/elements/1.1/"
   xmlns:cc="http://creativecommons.org/ns#"
   xmlns:rdf="http://www.w3.org/1999/02/22-rdf-syntax-ns#"
   xmlns:svg="http://www.w3.org/2000/svg"
   xmlns="http://www.w3.org/2000/svg"
   xmlns:sodipodi="http://sodipodi.sourceforge.net/DTD/sodipodi-0.dtd"
   xmlns:inkscape="http://www.inkscape.org/namespaces/inkscape"
   id="Layer_1"
   xml:space="preserve"
   viewBox="0 0 1444.9001 830.09996"
   version="1.1"
   y="0px"
   x="0px"
   inkscape:version="0.91 r13725"
   sodipodi:docname="black.svg"
   width="1444.9"
   height="830.09998"><metadata
     id="metadata23"><rdf:RDF><cc:Work
         rdf:about=""><dc:format>image/svg+xml</dc:format><dc:type
           rdf:resource="http://purl.org/dc/dcmitype/StillImage" /><dc:title></dc:title></cc:Work></rdf:RDF></metadata><defs
     id="defs21" /><sodipodi:namedview
     pagecolor="#ffffff"
     bordercolor="#666666"
     borderopacity="1"
     objecttolerance="10"
     gridtolerance="10"
     guidetolerance="10"
     inkscape:pageopacity="0"
     inkscape:pageshadow="2"
     inkscape:window-width="1920"
     inkscape:window-height="1017"
     id="namedview19"
     showgrid="false"
     inkscape:zoom="0.44535509"
     inkscape:cx="1061.8169"
     inkscape:cy="461.53663"
     inkscape:window-x="-8"
     inkscape:window-y="-8"
     inkscape:window-maximized="1"
     inkscape:current-layer="Layer_1" /><style
     type="text/css"
     id="style3">
	.st0{fill:#3F3F41;stroke:#3F3F41;stroke-width:2;stroke-miterlimit:10;}
	.st1{fill:#58585A;stroke:#58585A;stroke-width:2;stroke-miterlimit:10;}
	.st2{fill:#FFFFFF;stroke:#3F3F41;stroke-width:2;stroke-miterlimit:10;}
	.st3{fill:#3F3F41;}
</style><path
     class="st0"
     d="m 1333.9845,48.226819 c 0,-26.323279 -22.1218,-47.6300309 -49.3271,-47.6300309 L 160.52358,2.2150225 c -27.26121,0 -49.32715,21.3067525 -49.32715,47.6300305 l 0,0.215765 0,744.225982 1222.78807,0 0,-744.225982 0,-1.833999 z"
     id="path9"
     inkscape:connector-curvature="0"
     style="fill:#3f3f41;stroke:#3f3f41;stroke-width:1.09787452;stroke-miterlimit:10" /><path
     class="st1"
     d="m 1408.2825,794.2868 -74.298,0 -0.056,0 -286.0192,0 -389.70119,0 -620.862837,0 -0.446905,0 c -24.021146,0 -36.19930893,3.07464 -36.19930893,3.07464 l 0,22.81711 1.56416763,0.0539 39.8862753,1.834 76.364898,0 823.47842,0 423.66598,0 4.4691,0 32.9033,0 39.8863,-1.834 1.5642,-0.0539 0,-22.81711 c 0.056,0 -12.1782,-3.12859 -36.1993,-3.07464 z"
     id="path11"
     inkscape:connector-curvature="0"
     style="fill:#58585a;stroke:#58585a;stroke-width:1.09787452;stroke-miterlimit:10" /><path
     class="st0"
     d="m 1411.0198,821.74284 -13.91,0.32365 -738.90159,0 -539.69371,0 -70.443406,0 -13.909919,-0.32365 -32.1771639,-1.24065 c 0,0 6.1449444,7.71359 40.1097279,9.11606 l 1360.993461,0 c 33.9648,-1.45642 40.1097,-9.11606 40.1097,-9.11606 l -32.1771,1.24065 z"
     id="path13"
     inkscape:connector-curvature="0"
     style="fill:#3f3f41;stroke:#3f3f41;stroke-width:1.09787452;stroke-miterlimit:10" /><path
     class="st3"
     d="m 610.5011,794.23285 c 0,0.32365 -0.0559,0.6473 -0.0559,0.97095 l 0,3.50617 c 0,9.54758 8.04429,17.31511 17.93207,17.31511 l 188.42634,0 c 9.88777,0 17.93206,-7.76753 17.93206,-17.31511 l 0,-3.50617 0,-0.97095 -224.2346,0 z"
     id="path17"
     inkscape:connector-curvature="0"
     style="fill:#3f3f41" /></svg>