<?xml version="1.0" encoding="UTF-8" standalone="no"?>
<svg
   xmlns:dc="http://purl.org/dc/elements/1.1/"
   xmlns:cc="http://creativecommons.org/ns#"
   xmlns:rdf="http://www.w3.org/1999/02/22-rdf-syntax-ns#"
   xmlns:svg="http://www.w3.org/2000/svg"
   xmlns="http://www.w3.org/2000/svg"
   xmlns:sodipodi="http://sodipodi.sourceforge.net/DTD/sodipodi-0.dtd"
   xmlns:inkscape="http://www.inkscape.org/namespaces/inkscape"
   id="Layer_1"
   xml:space="preserve"
   viewBox="0 0 1400 1159.5"
   height="1159.5"
   width="1400"
   version="1.1"
   y="0px"
   x="0px"
   inkscape:version="0.91 r13725"
   sodipodi:docname="browser-light.svg"><metadata
     id="metadata24"><rdf:RDF><cc:Work
         rdf:about=""><dc:format>image/svg+xml</dc:format><dc:type
           rdf:resource="http://purl.org/dc/dcmitype/StillImage" /><dc:title></dc:title></cc:Work></rdf:RDF></metadata><defs
     id="defs22" /><sodipodi:namedview
     pagecolor="#ffffff"
     bordercolor="#666666"
     borderopacity="1"
     objecttolerance="10"
     gridtolerance="10"
     guidetolerance="10"
     inkscape:pageopacity="0"
     inkscape:pageshadow="2"
     inkscape:window-width="1920"
     inkscape:window-height="1017"
     id="namedview20"
     showgrid="false"
     fit-margin-top="0"
     fit-margin-left="0"
     fit-margin-right="0"
     fit-margin-bottom="0"
     inkscape:zoom="0.41142857"
     inkscape:cx="808.53533"
     inkscape:cy="671.3408"
     inkscape:window-x="-8"
     inkscape:window-y="-8"
     inkscape:window-maximized="1"
     inkscape:current-layer="Layer_1" /><style
     id="style3"
     type="text/css">
	.st0{fill:#ECF0F1;}
	.st1{fill:#FCFCFC;}
	.st2{fill:none;stroke:#E8E8E8;stroke-width:3;stroke-miterlimit:10;}
	.st3{fill:#E74C3C;}
	.st4{fill:#F1C40F;}
	.st5{fill:#2ECC71;}
	.st6{fill:#FFFFFF;}
	.st7{fill:none;stroke:#A5A8A8;stroke-width:5;stroke-linecap:round;stroke-linejoin:round;}
	.st8{fill:none;stroke:#D4D8D8;stroke-width:5;stroke-linecap:round;stroke-linejoin:round;}
</style><g
     id="g4152"
     transform="translate(0,-271.5)"><rect
       x="0"
       y="346.5"
       width="1400"
       height="34.5"
       class="st0"
       style="fill:#ecf0f1"
       id="rect5" /><path
       inkscape:connector-curvature="0"
       d="M 1388,381 12,381 C 5.3999999,381 -9.5367e-8,375.6 -9.5367e-8,369 l 0,-85.5 C -9.5367e-8,276.9 5.3999999,271.5 12,271.5 l 1376,0 c 6.6,0 12,5.4 12,12 l 0,85.5 c 0,6.6 -5.4,12 -12,12 z"
       class="st0"
       style="fill:#ecf0f1"
       id="path7" /><path
       inkscape:connector-curvature="0"
       d="m 1364.5,346.5 -1104,0 c -5.8,0 -10.5,-4.7 -10.5,-10.5 l 0,-30 c 0,-5.8 4.7,-10.5 10.5,-10.5 l 1104,0 c 5.8,0 10.5,4.7 10.5,10.5 l 0,30 c 0,5.8 -4.8,10.5 -10.5,10.5 z"
       class="st1"
       style="fill:#fcfcfc"
       id="path9" /><path
       inkscape:connector-curvature="0"
       d="m 1314.8,334.1 -6.9,-7.3 6.9,7.3 z"
       class="st2"
       style="fill:none;stroke:#e8e8e8;stroke-width:3;stroke-miterlimit:10"
       id="path11" /><circle
       class="st3"
       r="11.4"
       cx="39.400002"
       cy="321.10001"
       style="fill:#e74c3c"
       id="circle13" /><circle
       class="st4"
       r="11.4"
       cx="79.400002"
       cy="321.10001"
       style="fill:#f1c40f"
       id="circle15" /><circle
       class="st5"
       r="11.4"
       cx="119.4"
       cy="321.10001"
       style="fill:#2ecc71"
       id="circle17" /><circle
       class="st2"
       r="9.6000004"
       cx="1300.5"
       cy="319.89999"
       style="fill:none;stroke:#e8e8e8;stroke-width:3;stroke-miterlimit:10"
       id="circle21" /><polygon
       transform="translate(-3.9000001,265.5)"
       class="st2"
       points="1346.9,52.3 1339.8,53.5 1344,59.1 1343.6,66.1 1350.5,63.1 1357,66.1 1356.4,59 1360.7,53.4 1353.6,52.3 1350.5,45.9 "
       style="fill:none;stroke:#e8e8e8;stroke-width:3;stroke-miterlimit:10"
       id="polygon23" /><g
       transform="translate(-3.9000001,265.5)"
       id="g25"><line
         class="st7"
         x1="181.8"
         y1="65.400002"
         x2="172.2"
         y2="56.099998"
         style="fill:none;stroke:#a5a8a8;stroke-width:5;stroke-linecap:round;stroke-linejoin:round"
         id="line27" /><line
         class="st7"
         x1="172.39999"
         y1="55.799999"
         x2="181.89999"
         y2="46.400002"
         style="fill:none;stroke:#a5a8a8;stroke-width:5;stroke-linecap:round;stroke-linejoin:round"
         id="line29" /></g><g
       transform="translate(-3.9000001,265.5)"
       id="g31"><line
         class="st8"
         x1="213.10001"
         y1="46.299999"
         x2="222.7"
         y2="55.599998"
         style="fill:none;stroke:#d4d8d8;stroke-width:5;stroke-linecap:round;stroke-linejoin:round"
         id="line33" /><line
         class="st8"
         x1="222.5"
         y1="55.900002"
         x2="213.10001"
         y2="65.300003"
         style="fill:none;stroke:#d4d8d8;stroke-width:5;stroke-linecap:round;stroke-linejoin:round"
         id="line35" /></g></g></svg>