<?xml version="1.0" encoding="UTF-8" standalone="no"?>
<svg
   xmlns:dc="http://purl.org/dc/elements/1.1/"
   xmlns:cc="http://creativecommons.org/ns#"
   xmlns:rdf="http://www.w3.org/1999/02/22-rdf-syntax-ns#"
   xmlns:svg="http://www.w3.org/2000/svg"
   xmlns="http://www.w3.org/2000/svg"
   xmlns:sodipodi="http://sodipodi.sourceforge.net/DTD/sodipodi-0.dtd"
   xmlns:inkscape="http://www.inkscape.org/namespaces/inkscape"
   id="Layer_1"
   xml:space="preserve"
   viewBox="0 0 1400 1159.5"
   height="1159.5"
   width="1400"
   version="1.1"
   y="0px"
   x="0px"
   inkscape:version="0.91 r13725"
   sodipodi:docname="browser-dark.svg"><metadata
     id="metadata38"><rdf:RDF><cc:Work
         rdf:about=""><dc:format>image/svg+xml</dc:format><dc:type
           rdf:resource="http://purl.org/dc/dcmitype/StillImage" /><dc:title></dc:title></cc:Work></rdf:RDF></metadata><defs
     id="defs36" /><sodipodi:namedview
     pagecolor="#ffffff"
     bordercolor="#666666"
     borderopacity="1"
     objecttolerance="10"
     gridtolerance="10"
     guidetolerance="10"
     inkscape:pageopacity="0"
     inkscape:pageshadow="2"
     inkscape:window-width="1920"
     inkscape:window-height="1017"
     id="namedview34"
     showgrid="false"
     inkscape:zoom="2.3273915"
     inkscape:cx="-70.332693"
     inkscape:cy="1145.7009"
     inkscape:window-x="-8"
     inkscape:window-y="-8"
     inkscape:window-maximized="1"
     inkscape:current-layer="Layer_1" /><style
     id="style3"
     type="text/css">
	.st0{fill:#ECF0F1;}
	.st1{fill:#333333;}
	.st2{fill:#484848;}
	.st3{fill:none;stroke:#5B5B5B;stroke-width:3;stroke-miterlimit:10;}
	.st4{fill:#E74C3C;}
	.st5{fill:#F1C40F;}
	.st6{fill:#2ECC71;}
	.st7{fill:#FFFFFF;}
	.st8{fill:none;stroke:#717171;stroke-width:5;stroke-linecap:round;stroke-linejoin:round;}
	.st9{fill:none;stroke:#484848;stroke-width:5;stroke-linecap:round;stroke-linejoin:round;}
</style><g
     id="g4182"
     transform="matrix(1.0008957,0,0,0.99972373,0.14595994,-271.42499)"><rect
       style="fill:#ecf0f1"
       x="0"
       y="346.5"
       width="1400"
       height="34.5"
       class="st0"
       id="rect5" /><path
       sodipodi:nodetypes="sssssssss"
       style="fill:#333333"
       inkscape:connector-curvature="0"
       class="st1"
       d="M 1388,381 12,381 C 0.00720675,381 0,380.99294 0,369 l 0,-85.5 c 0,-6.6 5.4,-12 12,-12 l 1376,0 c 6.6,0 12,5.4 12,12 l 0,85.5 c 0,11.46111 0.069,12 -12,12 z"
       id="path7" /><g
       id="g4166"><path
         id="path9"
         class="st2"
         d="m 1364.5,346.5 -1104,0 c -5.8,0 -10.5,-4.7 -10.5,-10.5 l 0,-30 c 0,-5.8 4.7,-10.5 10.5,-10.5 l 1104,0 c 5.8,0 10.5,4.7 10.5,10.5 l 0,30 c 0,5.8 -4.7,10.5 -10.5,10.5 z"
         inkscape:connector-curvature="0"
         style="fill:#484848" /><path
         id="path11"
         d="m 1314.9,334.1 -6.9,-7.3 6.9,7.3 z"
         stroke-miterlimit="10"
         class="st3"
         inkscape:connector-curvature="0"
         style="fill:none;stroke:#5b5b5b;stroke-width:3;stroke-miterlimit:10" /><circle
         id="circle13"
         class="st4"
         cy="321.10001"
         cx="39.400002"
         r="11.4"
         style="fill:#e74c3c" /><circle
         id="circle15"
         class="st5"
         cy="321.10001"
         cx="79.400002"
         r="11.4"
         style="fill:#f1c40f" /><circle
         id="circle17"
         class="st6"
         cy="321.10001"
         cx="119.4"
         r="11.4"
         style="fill:#2ecc71" /><g
         id="g12"
         style="fill:none"
         transform="translate(0,271.5)"><circle
           id="circle21"
           class="st3"
           cy="48.400002"
           cx="1300.6"
           stroke-miterlimit="10"
           r="9.6000004"
           style="fill:none;stroke:#5b5b5b;stroke-width:3;stroke-miterlimit:10" /><polygon
           id="polygon23"
           transform="translate(-9,-6)"
           points="1365.9,53.4 1358.8,52.3 1355.6,45.9 1352.1,52.3 1344.9,53.5 1349.1,59.1 1348.8,66.1 1355.6,63.1 1362.2,66.1 1361.5,59 "
           stroke-miterlimit="10"
           class="st3"
           style="fill:none;stroke:#5b5b5b;stroke-width:3;stroke-miterlimit:10" /><g
           id="g25"
           transform="translate(-9,-6)"
           style="stroke:#717171;stroke-width:5;stroke-linecap:round;stroke-linejoin:round"><line
             id="line27"
             y2="56.099998"
             class="st8"
             x2="177.39999"
             y1="65.400002"
             x1="187"
             style="fill:none;stroke:#717171;stroke-width:5;stroke-linecap:round;stroke-linejoin:round" /><line
             id="line29"
             y2="46.400002"
             class="st8"
             x2="187"
             y1="55.799999"
             x1="177.5"
             style="fill:none;stroke:#717171;stroke-width:5;stroke-linecap:round;stroke-linejoin:round" /></g><g
           id="g31"
           transform="translate(-9,-6)"
           style="stroke:#484848;stroke-width:5;stroke-linecap:round;stroke-linejoin:round"><line
             id="line33"
             y2="55.599998"
             class="st9"
             x2="228.60001"
             y1="46.299999"
             x1="219"
             style="fill:none;stroke:#484848;stroke-width:5;stroke-linecap:round;stroke-linejoin:round" /><line
             id="line35"
             y2="65.300003"
             class="st9"
             x2="219"
             y1="55.900002"
             x1="228.5"
             style="fill:none;stroke:#484848;stroke-width:5;stroke-linecap:round;stroke-linejoin:round" /></g></g></g><g
       transform="translate(0,271.5)"
       style="fill:#333333"
       id="g21"><g
         id="g22"><path
           inkscape:connector-curvature="0"
           d="m 1280.5,92.201 0,-17.24 42.94,-0.02764 42.94,-0.02765 0.8593,-0.24358 c 1.2499,-0.35426 2.8764,-1.1926 3.8765,-1.998 1.9149,-1.5421 3.3244,-3.892 3.7207,-6.203 l 0.1268,-0.73945 24.984,0 0,43.718 -119.45,0 0,-17.24 z"
           id="path4176" /><path
           inkscape:connector-curvature="0"
           d="m 1280.5,92.202 0,-17.239 42.94,-0.0279 42.94,-0.0279 0.9433,-0.29592 c 2.9889,-0.9376 5.2633,-2.8336 6.6032,-5.5046 0.3759,-0.74914 0.8315,-2.1402 0.9412,-2.8734 l 0.076,-0.51023 25.004,0 0,43.718 -119.45,0 0,-17.239 z"
           id="path4178" /><path
           inkscape:connector-curvature="0"
           d="m 1280.5,92.218 0,-17.223 42.94,-0.07562 c 37.867,-0.06669 43.014,-0.09487 43.57,-0.23856 3.0963,-0.80026 5.9109,-3.1947 7.098,-6.0385 0.3451,-0.82666 0.6248,-1.7621 0.7527,-2.5173 l 0.068,-0.40281 25.018,0 0,43.718 -119.45,0 0,-17.223 z"
           id="path4180" /><path
           inkscape:connector-curvature="0"
           d="m 1280.5,92.201 0,-17.24 15.387,-0.01138 c 8.4631,-0.0063 27.858,-0.04633 43.101,-0.08905 l 27.714,-0.07767 0.7519,-0.24566 c 1.8309,-0.59818 3.3143,-1.5453 4.6775,-2.9863 1.3484,-1.4255 2.1355,-2.8978 2.5842,-4.8341 l 0.2302,-0.9936 25.002,0 0,43.718 -119.45,0 0,-17.24 z"
           id="path4182" /><path
           inkscape:connector-curvature="0"
           d="m 1280.5,92.218 0,-17.223 21.027,-0.07149 c 11.565,-0.03932 28.761,-0.0774 38.213,-0.08464 9.4527,-0.0072 19.483,-0.04458 22.289,-0.08299 l 5.1023,-0.06985 0.8594,-0.34472 c 3.2624,-1.3087 5.6789,-3.9182 6.54,-7.0622 0.1456,-0.53171 0.2935,-1.0997 0.3286,-1.2621 l 0.064,-0.2954 25.024,0 0,43.718 -119.45,0 0,-17.223 z"
           id="path4184" /></g><g
         id="g29"><path
           inkscape:connector-curvature="0"
           d="m -0.010022,103.91 c 0.0041869,-3.2814 0.02541,-5.4212 0.051273,-5.1694 0.41156,4.0072 2.9113,7.6247 6.5477,9.4752 1.2457,0.63394 2.5692,1.0374 3.9744,1.2117 0.49064,0.0608 -0.16031,0.0707 -5.0083,0.0757 l -5.5722,0.006 0.007144,-5.5991 z"
           id="path4161" /><path
           inkscape:connector-curvature="0"
           d="m 3.729e-4,107.95 c 0.019082,-0.86889 0.03783,-3.2112 0.041662,-5.2051 0.0038321,-1.9939 0.017151,-3.577 0.029597,-3.5179 0.012446,0.05908 0.07214,0.36119 0.13265,0.67135 0.47293,2.424 1.9397,4.9585 3.8065,6.5772 1.8164,1.575 3.6943,2.4831 5.9886,2.8959 0.3931401,0.0708 0.1028501,0.0777 -3.4152,0.0821 -2.1147,0.003 -4.4689,0.0209 -5.2317,0.0405 l -1.3868,0.0357 0.034694,-1.5798 z"
           id="path4167" /><path
           inkscape:connector-curvature="0"
           d="m 7.3872e-4,107.14 c 0.07596366,-7.972504 0.03918232,-5.28632 0.0424859,-8.0197 1.48385878,3.963 6.12222858,8.37732 9.95614998,10.25196 -3.7967896,0.1718 0,0 -10.03429998,0.158 L 0.07670238,99.167496 Z"
           id="path4173"
           sodipodi:nodetypes="cccccc" /></g></g></g></svg>