<?xml version="1.0" encoding="UTF-8" standalone="no"?>
<svg
   xmlns:dc="http://purl.org/dc/elements/1.1/"
   xmlns:cc="http://creativecommons.org/ns#"
   xmlns:rdf="http://www.w3.org/1999/02/22-rdf-syntax-ns#"
   xmlns:svg="http://www.w3.org/2000/svg"
   xmlns="http://www.w3.org/2000/svg"
   xmlns:sodipodi="http://sodipodi.sourceforge.net/DTD/sodipodi-0.dtd"
   xmlns:inkscape="http://www.inkscape.org/namespaces/inkscape"
   id="Gesamt"
   xml:space="preserve"
   viewBox="0 0 798.79998 637.09996"
   height="637.09998"
   width="798.79999"
   version="1.1"
   y="0px"
   x="0px"
   inkscape:version="0.91 r13725"
   sodipodi:docname="browser.svg"><metadata
     id="metadata99"><rdf:RDF><cc:Work
         rdf:about=""><dc:format>image/svg+xml</dc:format><dc:type
           rdf:resource="http://purl.org/dc/dcmitype/StillImage" /><dc:title></dc:title></cc:Work></rdf:RDF></metadata><defs
     id="defs97" /><sodipodi:namedview
     pagecolor="#ffffff"
     bordercolor="#666666"
     borderopacity="1"
     objecttolerance="10"
     gridtolerance="10"
     guidetolerance="10"
     inkscape:pageopacity="0"
     inkscape:pageshadow="2"
     inkscape:window-width="1920"
     inkscape:window-height="1017"
     id="namedview95"
     showgrid="false"
     fit-margin-top="0"
     fit-margin-left="0"
     fit-margin-right="0"
     fit-margin-bottom="0"
     inkscape:zoom="0.72112676"
     inkscape:cx="631.44089"
     inkscape:cy="212.84009"
     inkscape:window-x="-8"
     inkscape:window-y="-8"
     inkscape:window-maximized="1"
     inkscape:current-layer="Gesamt" /><style
     id="style3"
     type="text/css">
	.st0{fill:#FFFFFF;}
	.st1{fill:#C1C1C1;}
	.st2{fill:url(#SVGID_1_);}
	.st3{fill:#FFBB3A;}
	.st4{fill:#FFAA00;}
	.st5{fill:#FC5E57;}
	.st6{fill:#CE4E4A;}
	.st7{fill:#2CC448;}
	.st8{fill:#40B240;}
	.st9{fill:none;stroke:#2E2E2E;stroke-miterlimit:10;}
	.st10{fill:none;stroke:#B6B6B6;stroke-miterlimit:10;}
	.st11{fill:#2E2E2E;}
	.st12{fill:#B6B6B6;}
	.st13{fill:none;stroke:#FFFFFF;stroke-miterlimit:10;}
	.st14{fill:none;stroke:#FFFFFF;stroke-width:2;stroke-miterlimit:10;}
</style><path
     style="fill:#ffffff"
     inkscape:connector-curvature="0"
     d="m 798.7,607.68964 0,22.87474 c 0,3.5946 -2.7,6.53563 -6,6.53563 l -786.7,0 c -3.3,0 -6,-2.94103 -6,-6.53563 l 0,-22.87474 0,4.3571 0,-567.51109 c 0,-3.5946 2.7,-6.535637 6,-6.535637 l 786.8,0 c 3.3,0 6,2.941037 6,6.535637 l 0,567.51109"
     class="st0"
     id="path12" /><g
     id="Browser"
     transform="translate(-3.2,-2.0000112)"><g
       id="g15"><path
         style="fill:#c1c1c1"
         inkscape:connector-curvature="0"
         d="m 3.2,40 0,-31 c 0,-3.3 2.7,-6 6,-6 L 796,3 c 3.3,0 6,2.7 6,6 l 0,31"
         class="st1"
         id="path17" /><linearGradient
         x1="402.62"
         y1="39"
         x2="402.62"
         gradientUnits="userSpaceOnUse"
         y2="2"
         id="SVGID_1_"><stop
           offset="0"
           stop-color="#ccc"
           id="stop20" /><stop
           offset=".967"
           stop-color="#E6E6E6"
           id="stop22" /><stop
           offset="1"
           stop-color="#F2F2F2"
           id="stop24" /></linearGradient><path
         style="fill:url(#SVGID_1_)"
         inkscape:connector-curvature="0"
         d="m 3.2,39 0,-31 c 0,-3.3 2.7,-6 6,-6 L 796,2 c 3.3,0 6,2.7 6,6 l 0,31"
         class="st2"
         id="path26" /></g><g
       id="g28"><circle
         style="fill:#ffbb3a"
         class="st3"
         r="5.5"
         cx="42.200001"
         cy="20"
         id="circle30" /><g
         id="g32"><path
           style="fill:#ffaa00"
           inkscape:connector-curvature="0"
           d="m 42.2,15.1 c 2.7,0 5,2.2 5,5 0,2.7 -2.2,5 -5,5 -2.7,0 -5,-2.2 -5,-5 0.1,-2.8 2.3,-5 5,-5 m 0,-1 c -3.3,0 -6,2.7 -6,6 0,3.3 2.7,6 6,6 3.3,0 6,-2.7 6,-6 0,-3.3 -2.7,-6 -6,-6 z"
           class="st4"
           id="path34" /></g></g><g
       id="g36"><circle
         style="fill:#fc5e57"
         class="st5"
         r="5.5"
         cx="22.200001"
         cy="20"
         id="circle38" /><g
         id="g40"><path
           style="fill:#ce4e4a"
           inkscape:connector-curvature="0"
           d="m 22.2,15.1 c 2.7,0 5,2.2 5,5 0,2.7 -2.2,5 -5,5 -2.7,0 -5,-2.2 -5,-5 0.1,-2.8 2.3,-5 5,-5 m 0,-1 c -3.3,0 -6,2.7 -6,6 0,3.3 2.7,6 6,6 3.3,0 6,-2.7 6,-6 0,-3.3 -2.7,-6 -6,-6 z"
           class="st6"
           id="path42" /></g></g><g
       id="g44"><circle
         style="fill:#2cc448"
         class="st7"
         r="5.5"
         cx="62.099998"
         cy="20"
         id="circle46" /><g
         id="g48"><path
           style="fill:#40b240"
           inkscape:connector-curvature="0"
           d="m 62.1,15.1 c 2.7,0 5,2.2 5,5 0,2.7 -2.2,5 -5,5 -2.7,0 -5,-2.2 -5,-5 0.1,-2.8 2.3,-5 5,-5 m 0,-1 c -3.3,0 -6,2.7 -6,6 0,3.3 2.7,6 6,6 3.3,0 6,-2.7 6,-6 0,-3.3 -2.7,-6 -6,-6 z"
           class="st8"
           id="path50" /></g></g><g
       id="g52"><g
         id="g54"><path
           style="fill:#c1c1c1"
           inkscape:connector-curvature="0"
           d="m 105.2,30 c 0,1.7 -1.3,3 -3,3 l -18,0 c -1.7,0 -3,-1.3 -3,-3 l 0,-16 c 0,-1.7 1.3,-3 3,-3 l 18,0 c 1.7,0 3,1.3 3,3 l 0,16 z"
           class="st1"
           id="path56" /></g><g
         id="g58"><path
           style="fill:#ffffff"
           inkscape:connector-curvature="0"
           d="m 105.2,29 c 0,1.7 -1.3,3 -3,3 l -18,0 c -1.7,0 -3,-1.3 -3,-3 l 0,-16 c 0,-1.7 1.3,-3 3,-3 l 18,0 c 1.7,0 3,1.3 3,3 l 0,16 z"
           class="st0"
           id="path60" /></g></g><g
       id="g62"><g
         id="g64"><path
           style="fill:#c1c1c1"
           inkscape:connector-curvature="0"
           d="m 131.2,30 c 0,1.7 -1.3,3 -3,3 l -18,0 c -1.7,0 -3,-1.3 -3,-3 l 0,-16 c 0,-1.7 1.3,-3 3,-3 l 18,0 c 1.7,0 3,1.3 3,3 l 0,16 z"
           class="st1"
           id="path66" /></g><g
         id="g68"><path
           style="fill:#ffffff"
           inkscape:connector-curvature="0"
           d="m 131.2,29 c 0,1.7 -1.3,3 -3,3 l -18,0 c -1.7,0 -3,-1.3 -3,-3 l 0,-16 c 0,-1.7 1.3,-3 3,-3 l 18,0 c 1.7,0 3,1.3 3,3 l 0,16 z"
           class="st0"
           id="path70" /></g></g><g
       id="g72"><g
         id="g74"><path
           style="fill:#c1c1c1"
           inkscape:connector-curvature="0"
           d="m 179.2,30 c 0,1.7 -1.3,3 -3,3 l -31,0 c -1.7,0 -3,-1.3 -3,-3 l 0,-16 c 0,-1.7 1.3,-3 3,-3 l 31,0 c 1.7,0 3,1.3 3,3 l 0,16 z"
           class="st1"
           id="path76" /></g><g
         id="g78"><path
           style="fill:#ffffff"
           inkscape:connector-curvature="0"
           d="m 179.2,29 c 0,1.7 -1.3,3 -3,3 l -31,0 c -1.7,0 -3,-1.3 -3,-3 l 0,-16 c 0,-1.7 1.3,-3 3,-3 l 31,0 c 1.7,0 3,1.3 3,3 l 0,16 z"
           class="st0"
           id="path80" /></g></g><g
       id="g82"><g
         id="g84"><path
           style="fill:#c1c1c1"
           inkscape:connector-curvature="0"
           d="m 721.2,30 c 0,1.7 -1.3,3 -3,3 l -31,0 c -1.7,0 -3,-1.3 -3,-3 l 0,-16 c 0,-1.7 1.3,-3 3,-3 l 31,0 c 1.7,0 3,1.3 3,3 l 0,16 z"
           class="st1"
           id="path86" /></g><g
         id="g88"><path
           style="fill:#ffffff"
           inkscape:connector-curvature="0"
           d="m 721.2,29 c 0,1.7 -1.3,3 -3,3 l -31,0 c -1.7,0 -3,-1.3 -3,-3 l 0,-16 c 0,-1.7 1.3,-3 3,-3 l 31,0 c 1.7,0 3,1.3 3,3 l 0,16 z"
           class="st0"
           id="path90" /></g></g><g
       id="g92"><g
         id="g94"><path
           style="fill:#c1c1c1"
           inkscape:connector-curvature="0"
           d="m 766.2,30 c 0,1.7 -1.3,3 -3,3 l -31,0 c -1.7,0 -3,-1.3 -3,-3 l 0,-16 c 0,-1.7 1.3,-3 3,-3 l 31,0 c 1.7,0 3,1.3 3,3 l 0,16 z"
           class="st1"
           id="path96" /></g><g
         id="g98"><path
           style="fill:#ffffff"
           inkscape:connector-curvature="0"
           d="m 766.2,29 c 0,1.7 -1.3,3 -3,3 l -31,0 c -1.7,0 -3,-1.3 -3,-3 l 0,-16 c 0,-1.7 1.3,-3 3,-3 l 31,0 c 1.7,0 3,1.3 3,3 l 0,16 z"
           class="st0"
           id="path100" /></g></g><g
       id="g102"><g
         id="g104"><path
           style="fill:#c1c1c1"
           inkscape:connector-curvature="0"
           d="m 591.2,30 c 0,1.7 -1.3,3 -3,3 l -370,0 c -1.7,0 -3,-1.3 -3,-3 l 0,-16 c 0,-1.7 1.3,-3 3,-3 l 370,0 c 1.7,0 3,1.3 3,3 l 0,16 z"
           class="st1"
           id="path106" /></g><g
         id="g108"><path
           style="fill:#ffffff"
           inkscape:connector-curvature="0"
           d="m 591.2,29 c 0,1.7 -1.3,3 -3,3 l -370,0 c -1.7,0 -3,-1.3 -3,-3 l 0,-16 c 0,-1.7 1.3,-3 3,-3 l 370,0 c 1.7,0 3,1.3 3,3 l 0,16 z"
           class="st0"
           id="path110" /></g></g><polyline
       style="fill:none;stroke:#2e2e2e;stroke-miterlimit:10"
       class="st9"
       stroke-miterlimit="10"
       points="96.3 27 90.2 21.2 96.3 15"
       id="polyline112" /><polyline
       style="fill:none;stroke:#b6b6b6;stroke-miterlimit:10"
       class="st10"
       stroke-miterlimit="10"
       points="116.2 27 122.3 21.2 116.2 15"
       id="polyline114" /><g
       id="g116"><g
         id="g118"><path
           style="fill:#2e2e2e"
           inkscape:connector-curvature="0"
           d="m 167.2,16 0,10 -13,0 0,-10 13,0 m 0,-1 -13,0 c -0.6,0 -1,0.4 -1,1 l 0,10 c 0,0.6 0.4,1 1,1 l 13,0 c 0.6,0 1,-0.4 1,-1 l 0,-10 c 0,-0.6 -0.5,-1 -1,-1 z"
           class="st11"
           id="path120" /></g><g
         id="g122"><polygon
           style="fill:#2e2e2e"
           class="st11"
           points="155.2,17 155.2,18 157.2,18 157.2,17 157.2,17 "
           id="polygon124" /></g><g
         id="g126"><polygon
           style="fill:#2e2e2e"
           class="st11"
           points="155.2,19 155.2,20 157.2,20 157.2,19 157.2,19 "
           id="polygon128" /></g><g
         id="g130"><polygon
           style="fill:#2e2e2e"
           class="st11"
           points="155.2,21 155.2,22 157.2,22 157.2,21 157.2,21 "
           id="polygon132" /></g><g
         id="g134"><polygon
           style="fill:#2e2e2e"
           class="st11"
           points="158.2,16 158.2,26 159.2,26 159.2,16 159.2,16 "
           id="polygon136" /></g></g><g
       id="g138"><path
         style="fill:none;stroke:#b6b6b6;stroke-miterlimit:10"
         inkscape:connector-curvature="0"
         stroke-miterlimit="10"
         class="st10"
         d="m 584.2,21.5 c 0,3 -2.5,5.5 -5.5,5.5 -3,0 -5.5,-2.5 -5.5,-5.5 0,-3 2.5,-5.5 5.5,-5.5"
         id="path140" /><polygon
         style="fill:#b6b6b6"
         class="st12"
         points="578.2,19 578.2,13.8 582.7,16.4 "
         id="polygon142" /></g><g
       id="g144"><g
         id="g146"><path
           style="fill:none;stroke:#ffffff;stroke-miterlimit:10"
           inkscape:connector-curvature="0"
           stroke-miterlimit="10"
           class="st13"
           d="m 753.2,23 c 0,0.6 -0.4,1 -1,1 l -7,0 c -0.6,0 -1,-0.4 -1,-1 l 0,-7 c 0,-0.6 0.4,-1 1,-1 l 7,0 c 0.6,0 1,0.4 1,1 l 0,7 z"
           id="path148" /><path
           style="fill:#2e2e2e"
           inkscape:connector-curvature="0"
           d="m 752.2,16 0,7 -7,0 0,-7 7,0 m 0,-1 -7,0 c -0.6,0 -1,0.4 -1,1 l 0,7 c 0,0.6 0.4,1 1,1 l 7,0 c 0.6,0 1,-0.4 1,-1 l 0,-7 c 0,-0.6 -0.5,-1 -1,-1 z"
           class="st11"
           id="path150" /></g><g
         id="g152"><path
           style="fill:#ffffff"
           inkscape:connector-curvature="0"
           d="m 750.2,26 c 0,0.6 -0.4,1 -1,1 l -7,0 c -0.6,0 -1,-0.4 -1,-1 l 0,-7 c 0,-0.6 0.4,-1 1,-1 l 7,0 c 0.6,0 1,0.4 1,1 l 0,7 z"
           class="st0"
           id="path154" /><path
           style="fill:none;stroke:#ffffff;stroke-width:2;stroke-miterlimit:10"
           inkscape:connector-curvature="0"
           stroke-miterlimit="10"
           class="st14"
           d="m 750.2,26 c 0,0.6 -0.4,1 -1,1 l -7,0 c -0.6,0 -1,-0.4 -1,-1 l 0,-7 c 0,-0.6 0.4,-1 1,-1 l 7,0 c 0.6,0 1,0.4 1,1 l 0,7 z"
           id="path156" /><path
           style="fill:#2e2e2e"
           inkscape:connector-curvature="0"
           d="m 749.2,19 0,7 -7,0 0,-7 7,0 m 0,-1 -7,0 c -0.6,0 -1,0.4 -1,1 l 0,7 c 0,0.6 0.4,1 1,1 l 7,0 c 0.6,0 1,-0.4 1,-1 l 0,-7 c 0,-0.6 -0.5,-1 -1,-1 z"
           class="st11"
           id="path158" /></g></g><g
       id="g160"><g
         id="g162"><path
           style="fill:#2e2e2e"
           inkscape:connector-curvature="0"
           d="m 707.2,19 0,8 -9,0 0,-8 9,0 m 0,-1 -9,0 c -0.6,0 -1,0.4 -1,1 l 0,8 c 0,0.6 0.4,1 1,1 l 9,0 c 0.6,0 1,-0.4 1,-1 l 0,-8 c 0,-0.6 -0.5,-1 -1,-1 z"
           class="st11"
           id="path164" /></g><g
         id="g166"><g
           id="g168"><polygon
             style="fill:#ffffff"
             class="st0"
             points="703.2,18 703.2,19 704.2,19 704.2,18 704.2,18 "
             id="polygon170" /></g><g
           id="g172"><polygon
             style="fill:#ffffff"
             class="st0"
             points="701.2,18 701.2,19 702.2,19 702.2,18 702.2,18 "
             id="polygon174" /></g></g><g
         id="g176"><g
           id="g178"><polygon
             style="fill:#2e2e2e"
             class="st11"
             points="702.2,14.2 702.2,23 703.2,23 703.2,14.2 703.2,14.2 "
             id="polygon180" /></g><polyline
           style="fill:none;stroke:#2e2e2e;stroke-miterlimit:10"
           class="st9"
           stroke-miterlimit="10"
           points="700.2 17 702.6 14 705.2 17"
           id="polyline182" /></g></g></g></svg>