<?xml version="1.0" encoding="UTF-8" standalone="no"?>
<!-- Generator: Adobe Illustrator 19.2.1, SVG Export Plug-In . SVG Version: 6.00 Build 0)  -->

<svg
   xmlns:dc="http://purl.org/dc/elements/1.1/"
   xmlns:cc="http://creativecommons.org/ns#"
   xmlns:rdf="http://www.w3.org/1999/02/22-rdf-syntax-ns#"
   xmlns:svg="http://www.w3.org/2000/svg"
   xmlns="http://www.w3.org/2000/svg"
   xmlns:sodipodi="http://sodipodi.sourceforge.net/DTD/sodipodi-0.dtd"
   xmlns:inkscape="http://www.inkscape.org/namespaces/inkscape"
   version="1.1"
   id="Layer_1"
   x="0px"
   y="0px"
   viewBox="0 0 1920 1539.9"
   xml:space="preserve"
   inkscape:version="0.91 r13725"
   sodipodi:docname="desktop.svg"
   width="1920"
   height="1539.9"><metadata
     id="metadata115"><rdf:RDF><cc:Work
         rdf:about=""><dc:format>image/svg+xml</dc:format><dc:type
           rdf:resource="http://purl.org/dc/dcmitype/StillImage" /><dc:title></dc:title></cc:Work></rdf:RDF></metadata><defs
     id="defs113"><linearGradient
       id="SVGID_1_"
       gradientUnits="userSpaceOnUse"
       x1="0"
       y1="304.74011"
       x2="1920"
       y2="304.74011"
       gradientTransform="matrix(1,0,0,-1,0,1537.89)"><stop
         offset="0"
         style="stop-color:#AFAFB3"
         id="stop9" /><stop
         offset="1"
         style="stop-color:#DCDDE1"
         id="stop11" /></linearGradient><linearGradient
       id="SVGID_6_"
       gradientUnits="userSpaceOnUse"
       x1="959.95007"
       y1="216.1899"
       x2="959.95007"
       y2="4.8413"
       gradientTransform="matrix(1,0,0,-1,0,1537.89)"><stop
         offset="0"
         style="stop-color:#B8B8BC"
         id="stop72" /><stop
         offset="0.1432"
         style="stop-color:#C7C7C9"
         id="stop74" /><stop
         offset="0.4273"
         style="stop-color:#F1F1F1"
         id="stop76" /><stop
         offset="0.4864"
         style="stop-color:#FFFFFF"
         id="stop78" /><stop
         offset="0.541"
         style="stop-color:#F7F6F6"
         id="stop80" /><stop
         offset="0.6061"
         style="stop-color:#E7E6E6"
         id="stop82" /><stop
         offset="0.6767"
         style="stop-color:#D0CFD0"
         id="stop84" /><stop
         offset="0.7505"
         style="stop-color:#B2B2B4"
         id="stop86" /><stop
         offset="0.8187"
         style="stop-color:#939598"
         id="stop88" /><stop
         offset="0.9417"
         style="stop-color:#F2F2F2"
         id="stop90" /><stop
         offset="1"
         style="stop-color:#BDBEC0"
         id="stop92" /></linearGradient><linearGradient
       id="SVGID_7_"
       gradientUnits="userSpaceOnUse"
       x1="668.40002"
       y1="2.54"
       x2="1251.5"
       y2="2.54"
       gradientTransform="matrix(1,0,0,-1,0,1537.89)"><stop
         offset="0"
         style="stop-color:#A8AAAD"
         id="stop97" /><stop
         offset="1.334430e-002"
         style="stop-color:#B6B7BA"
         id="stop99" /><stop
         offset="3.980583e-002"
         style="stop-color:#DFDFE0"
         id="stop101" /><stop
         offset="5.000000e-002"
         style="stop-color:#F2F2F2"
         id="stop103" /><stop
         offset="0.95"
         style="stop-color:#F2F2F2"
         id="stop105" /><stop
         offset="1"
         style="stop-color:#A8AAAD"
         id="stop107" /></linearGradient></defs><sodipodi:namedview
     pagecolor="#ffffff"
     bordercolor="#666666"
     borderopacity="1"
     objecttolerance="10"
     gridtolerance="10"
     guidetolerance="10"
     inkscape:pageopacity="0"
     inkscape:pageshadow="2"
     inkscape:window-width="1920"
     inkscape:window-height="1017"
     id="namedview111"
     showgrid="false"
     fit-margin-top="0"
     fit-margin-left="0"
     fit-margin-right="0"
     fit-margin-bottom="0"
     inkscape:zoom="0.6"
     inkscape:cx="1098.1124"
     inkscape:cy="1034.2207"
     inkscape:window-x="-8"
     inkscape:window-y="-8"
     inkscape:window-maximized="1"
     inkscape:current-layer="Layer_1" /><style
     type="text/css"
     id="style3">
	.st0{fill:url(#SVGID_1_);}
	.st1{opacity:0.5;fill:#F2F2F2;enable-background:new    ;}
	.st2{fill:#010101;}
	.st3{fill:#0F0F0F;}
	.st4{opacity:0.5;fill:#FFFFFF;enable-background:new    ;}
	.st5{fill:url(#SVGID_2_);}
	.st6{fill:url(#SVGID_3_);}
	.st7{opacity:0.1;fill:#FFFFFF;enable-background:new    ;}
	.st8{fill:url(#SVGID_4_);}
	.st9{fill:url(#SVGID_5_);}
	.st10{fill:#F2F2F2;}
	.st11{fill:url(#SVGID_6_);}
	.st12{fill:url(#SVGID_7_);}
</style><path
     class="st0"
     d="m 1920,1144.6 0,129.6 c 0,26.2 -21.3,47.5 -47.5,47.5 l -1825,0 C 21.3,1321.7 0,1300.4 0,1274.2 l 0,-129.6 1920,0 z"
     id="path13"
     inkscape:connector-curvature="0"
     style="fill:url(#SVGID_1_)" /><g
     id="g15"
     transform="translate(0,-8.8281249e-6)"><path
       class="st1"
       d="m 977.1,1207.5 c -3.2,0 -6.1,0.5 -8.7,1.4 l -1.6,0.6 -2.2,0.9 c -1.4,0.5 -2.7,0.8 -3.9,0.8 -0.9,0 -2.1,-0.3 -3.6,-0.9 l -1.7,-0.7 -1.6,-0.6 c -2.3,-1 -4.8,-1.5 -7.5,-1.5 -7.2,0 -12.9,2.4 -17.2,7.2 -4.3,4.8 -6.5,11.2 -6.5,19.1 0,11.1 3.5,21.4 10.4,30.8 4.8,6.6 9.2,9.9 13.2,9.9 1.7,0 3.4,-0.3 5,-1 l 2.1,-0.9 1.7,-0.6 c 2.4,-0.8 4.5,-1.3 6.5,-1.3 2.1,0 4.5,0.5 7.2,1.6 l 1.3,0.5 c 2.8,1.1 5,1.6 6.6,1.6 3.4,0 7.2,-2.3 11.3,-7 4.1,-4.7 7.3,-10.2 9.5,-16.5 -8.1,-4.2 -12.2,-10.2 -12.2,-18.1 0,-6.6 3.3,-12.2 9.9,-16.8 -4.5,-5.6 -10.5,-8.5 -18,-8.5 l 0,0 z m -1.1,-20.7 c -4.4,0.6 -8.3,2.8 -11.7,6.5 -3.4,3.7 -5,7.7 -5,11.9 0,0.5 0.1,1.3 0.2,2.4 4.8,0 9,-1.9 12.6,-5.6 3.6,-3.8 5.4,-8.1 5.4,-13.1 0,-0.5 0,-1.3 -0.1,-2.3 -0.6,0 -1.1,0.1 -1.4,0.2 l 0,0 z"
       id="path17"
       inkscape:connector-curvature="0"
       style="opacity:0.5;fill:#f2f2f2;enable-background:new" /><path
       class="st2"
       d="m 977.1,1205.9 c -3.2,0 -6.1,0.5 -8.7,1.4 l -1.6,0.6 -2.2,0.9 c -1.4,0.5 -2.7,0.8 -3.9,0.8 -0.9,0 -2.1,-0.3 -3.6,-0.9 l -1.7,-0.7 -1.6,-0.6 c -2.3,-1 -4.8,-1.5 -7.5,-1.5 -7.2,0 -12.9,2.4 -17.2,7.2 -4.3,4.8 -6.5,11.2 -6.5,19.1 0,11.1 3.5,21.4 10.4,30.8 4.8,6.6 9.2,9.9 13.2,9.9 1.7,0 3.4,-0.3 5,-1 l 2.1,-0.9 1.7,-0.6 c 2.4,-0.8 4.5,-1.3 6.5,-1.3 2.1,0 4.5,0.5 7.2,1.6 l 1.3,0.5 c 2.8,1.1 5,1.6 6.6,1.6 3.4,0 7.2,-2.3 11.3,-7 4.1,-4.7 7.3,-10.2 9.5,-16.5 -8.1,-4.2 -12.2,-10.2 -12.2,-18.1 0,-6.6 3.3,-12.2 9.9,-16.8 -4.5,-5.6 -10.5,-8.5 -18,-8.5 l 0,0 z m -1.1,-20.7 c -4.4,0.6 -8.3,2.8 -11.7,6.5 -3.4,3.7 -5,7.7 -5,11.9 0,0.5 0.1,1.3 0.2,2.4 4.8,0 9,-1.9 12.6,-5.6 3.6,-3.8 5.4,-8.1 5.4,-13.1 0,-0.5 0,-1.3 -0.1,-2.3 -0.6,0 -1.1,0.1 -1.4,0.2 l 0,0 z"
       id="path19"
       inkscape:connector-curvature="0"
       style="fill:#010101" /></g><g
     id="g21"
     transform="translate(0,-8.8281249e-6)"><path
       class="st2"
       d="M 1920,47.5 C 1920,21.3 1898.7,0 1872.5,0 L 47.5,0 C 21.3,0 0,21.3 0,47.5 l 0,1097.1 1920,0 0,-1097.1 z"
       id="path23"
       inkscape:connector-curvature="0"
       style="fill:#010101" /></g><path
     class="st3"
     d="m 1844.9,1070.5 -1769.9,0 0,-998.000008 1769.9,0 0,998.000008 z m -1764.9,-5 1759.9,0 0,-988.000008 -1759.9,0 L 80,1065.5 Z"
     id="path25"
     inkscape:connector-curvature="0"
     style="fill:#0f0f0f" /><g
     id="g27"
     transform="translate(0,-8.8281249e-6)"><path
       class="st4"
       d="m 930,39.1 c 0.8,0 1.5,0.7 1.5,1.5 0,0.8 -0.7,1.5 -1.5,1.5 -0.8,0 -1.5,-0.7 -1.5,-1.5 0,-0.8 0.7,-1.5 1.5,-1.5 z"
       id="path29"
       inkscape:connector-curvature="0"
       style="opacity:0.5;fill:#ffffff;enable-background:new" /><linearGradient
       id="SVGID_2_"
       gradientUnits="userSpaceOnUse"
       x1="930"
       y1="1499.0431"
       x2="930"
       y2="1496.2775"
       gradientTransform="matrix(1,0,0,-1,0,1537.89)"><stop
         offset="0"
         style="stop-color:#151517"
         id="stop32" /><stop
         offset="1"
         style="stop-color:#46464B"
         id="stop34" /></linearGradient><path
       class="st5"
       d="m 930,38.8 c 0.8,0 1.5,0.7 1.5,1.5 0,0.8 -0.7,1.5 -1.5,1.5 -0.8,0 -1.5,-0.7 -1.5,-1.5 0,-0.8 0.7,-1.5 1.5,-1.5 z"
       id="path36"
       inkscape:connector-curvature="0"
       style="fill:url(#SVGID_2_)" /><g
       id="g38"><path
         class="st4"
         d="m 960,33.7 c 4.1,0 7.5,3.4 7.5,7.5 0,4.1 -3.4,7.5 -7.5,7.5 -4.1,0 -7.5,-3.4 -7.5,-7.5 0,-4.1 3.3,-7.5 7.5,-7.5 z"
         id="path40"
         inkscape:connector-curvature="0"
         style="opacity:0.5;fill:#ffffff;enable-background:new" /><linearGradient
         id="SVGID_3_"
         gradientUnits="userSpaceOnUse"
         x1="960"
         y1="1504.4476"
         x2="960"
         y2="1490.067"
         gradientTransform="matrix(1,0,0,-1,0,1537.89)"><stop
           offset="0"
           style="stop-color:#151517"
           id="stop43" /><stop
           offset="1"
           style="stop-color:#46464B"
           id="stop45" /></linearGradient><path
         class="st6"
         d="m 960,32.8 c 4.1,0 7.5,3.4 7.5,7.5 0,4.1 -3.4,7.5 -7.5,7.5 -4.1,0 -7.5,-3.4 -7.5,-7.5 0,-4.1 3.3,-7.5 7.5,-7.5 z"
         id="path47"
         inkscape:connector-curvature="0"
         style="fill:url(#SVGID_3_)" /><path
         class="st7"
         d="m 961.9,42.8 c -2.9,-1.2 -0.5,4.4 -0.3,4.8 1.3,-0.3 2.5,-0.9 3.5,-1.8 -1,-1 -2,-2.5 -3.2,-3 z"
         id="path49"
         inkscape:connector-curvature="0"
         style="opacity:0.1;fill:#ffffff;enable-background:new" /><linearGradient
         id="SVGID_4_"
         gradientUnits="userSpaceOnUse"
         x1="960"
         y1="1493.9337"
         x2="960"
         y2="1501.9493"
         gradientTransform="matrix(1,0,0,-1,0,1537.89)"><stop
           offset="0"
           style="stop-color:#151517"
           id="stop52" /><stop
           offset="1"
           style="stop-color:#46464B"
           id="stop54" /></linearGradient><path
         class="st8"
         d="m 960,35.8 c 2.5,0 4.5,2 4.5,4.5 0,2.5 -2,4.5 -4.5,4.5 -2.5,0 -4.5,-2 -4.5,-4.5 0,-2.5 2,-4.5 4.5,-4.5 z"
         id="path56"
         inkscape:connector-curvature="0"
         style="fill:url(#SVGID_4_)" /><radialGradient
         id="SVGID_5_"
         cx="960.14838"
         cy="1496.6628"
         r="6.2189002"
         gradientTransform="matrix(1,0,0,-1,0,1537.89)"
         gradientUnits="userSpaceOnUse"><stop
           offset="0.2258"
           style="stop-color:#673090"
           id="stop59" /><stop
           offset="0.8587"
           style="stop-color:#29AAE1"
           id="stop61" /></radialGradient><path
         class="st9"
         d="m 960,37.2 c 1.7,0 3.1,1.4 3.1,3.1 0,1.7 -1.4,3.1 -3.1,3.1 -1.7,0 -3.1,-1.4 -3.1,-3.1 0,-1.7 1.4,-3.1 3.1,-3.1 z"
         id="path63"
         inkscape:connector-curvature="0"
         style="fill:url(#SVGID_5_)" /><path
         class="st4"
         d="m 960,37.1 c 0.9,0 1.6,0.4 1.6,0.8 0,0.4 -0.7,0.8 -1.6,0.8 -0.9,0 -1.6,-0.4 -1.6,-0.8 0,-0.4 0.7,-0.8 1.6,-0.8 z"
         id="path65"
         inkscape:connector-curvature="0"
         style="opacity:0.5;fill:#ffffff;enable-background:new" /><path
         class="st7"
         d="m 960,42.3 c 0.4,0 0.7,0.2 0.7,0.3 0,0.1 -0.3,0.4 -0.7,0.4 -0.4,0 -0.7,-0.2 -0.7,-0.3 0,-0.1 0.3,-0.4 0.7,-0.4 z"
         id="path67"
         inkscape:connector-curvature="0"
         style="opacity:0.1;fill:#ffffff;enable-background:new" /></g></g><polygon
     class="st10"
     points="0,1145 0,1145.3 1920,1145.3 1920,1145 1920,1144.6 0,1144.6 "
     id="polygon69"
     style="fill:#f2f2f2"
     transform="translate(0,-8.8281249e-6)" /><path
     class="st11"
     d="m 1207.5,1534.3 c -135.3,0 -385.9,0 -495.1,0 -43.6,0 -44,-3.5 -44,-3.5 l 58.9,-15.7 c 0,0 14.6,-4.5 20.7,-15.9 9.4,-17.6 11.9,-44.8 11.9,-44.8 l 9.5,-132.7 381.1,0 9.5,132.7 c 0,0 2.5,27.2 11.9,44.8 6.2,11.5 20.7,15.9 20.7,15.9 l 58.9,15.7 c 0,0 -0.2,3.5 -44,3.5 z"
     id="path94"
     inkscape:connector-curvature="0"
     style="fill:url(#SVGID_6_)" /><path
     class="st12"
     d="m 668.4,1534.9 c 0,0 7.3,5 44,5 109.1,0 359.7,0 495.1,0 32.6,0 44,-5.1 44,-5.1 l 0,-4 c 0,0 -0.1,3.5 -44,3.5 -135.3,0 -385.9,0 -495.1,0 -44.1,0 -44,-3.5 -44,-3.5 l 0,4.1 z"
     id="path109"
     inkscape:connector-curvature="0"
     style="fill:url(#SVGID_7_)" /></svg>