<?xml version="1.0" encoding="UTF-8" standalone="no"?>
<!-- Generator: Adobe Illustrator 19.2.1, SVG Export Plug-In . SVG Version: 6.00 Build 0)  -->

<svg
   xmlns:dc="http://purl.org/dc/elements/1.1/"
   xmlns:cc="http://creativecommons.org/ns#"
   xmlns:rdf="http://www.w3.org/1999/02/22-rdf-syntax-ns#"
   xmlns:svg="http://www.w3.org/2000/svg"
   xmlns="http://www.w3.org/2000/svg"
   xmlns:sodipodi="http://sodipodi.sourceforge.net/DTD/sodipodi-0.dtd"
   xmlns:inkscape="http://www.inkscape.org/namespaces/inkscape"
   version="1.1"
   x="0px"
   y="0px"
   viewBox="0 0 298.49999 606.09995"
   xml:space="preserve"
   id="svg2"
   inkscape:version="0.91 r13725"
   sodipodi:docname="gold.svg"
   width="298.5"
   height="606.09998"><metadata
     id="metadata31"><rdf:RDF><cc:Work
         rdf:about=""><dc:format>image/svg+xml</dc:format><dc:type
           rdf:resource="http://purl.org/dc/dcmitype/StillImage" /><dc:title></dc:title></cc:Work></rdf:RDF></metadata><defs
     id="defs29" /><sodipodi:namedview
     pagecolor="#ffffff"
     bordercolor="#666666"
     borderopacity="1"
     objecttolerance="10"
     gridtolerance="10"
     guidetolerance="10"
     inkscape:pageopacity="0"
     inkscape:pageshadow="2"
     inkscape:window-width="1920"
     inkscape:window-height="1017"
     id="namedview27"
     showgrid="false"
     inkscape:zoom="1.5465268"
     inkscape:cx="21.440431"
     inkscape:cy="343.79626"
     inkscape:window-x="-8"
     inkscape:window-y="-8"
     inkscape:window-maximized="1"
     inkscape:current-layer="svg2"
     fit-margin-top="0"
     fit-margin-left="0"
     fit-margin-right="0"
     fit-margin-bottom="0" /><style
     type="text/css"
     id="style4">
	.st0{fill:#F4DFCA;}
	.st1{fill:#F7F7F7;}
	.st2{fill:#3E3E3E;}
	.st3{fill:#387684;}
</style><g
     id="Backgrounds"
     transform="translate(-2.8,-3.4)" /><g
     id="Shadows"
     transform="translate(-2.8,-3.4)" /><g
     id="Phones"
     transform="translate(-2.8,-3.4)"><g
       id="g9"><path
         class="st0"
         d="m 299.7,131.2 -0.6,0 0,-83.6 C 299.1,23.3 279.2,3.4 254.9,3.4 L 49.2,3.4 C 24.8,3.4 4.9,23.3 4.9,47.6 l 0,32.1 -0.6,0 c -0.8,0 -1.5,0.7 -1.5,1.5 l 0,21.5 c 0,0.8 0.7,1.5 1.5,1.5 l 0.7,0 0,27.6 -0.7,0 c -0.8,0 -1.5,0.7 -1.5,1.5 l 0,42 c 0,0.8 0.7,1.5 1.5,1.5 l 0.7,0 0,10.4 -0.7,0 c -0.8,0 -1.5,0.7 -1.5,1.5 l 0,41.9 c 0,0.8 0.7,1.5 1.5,1.5 l 0.7,0 0,333.2 c 0,24.3 19.9,44.2 44.2,44.2 l 205.8,0 c 24.3,0 44.2,-19.9 44.2,-44.2 l 0,-389 0.6,0 c 0.8,0 1.5,-0.7 1.5,-1.5 l 0,-42.1 c -0.1,-0.8 -0.8,-1.5 -1.6,-1.5 z"
         id="path11"
         inkscape:connector-curvature="0"
         style="fill:#f4dfca" /><path
         class="st1"
         d="m 294.7,565.2 c 0,21.9 -17.9,39.8 -39.8,39.8 L 49.2,605 C 27.3,605 9.4,587.1 9.4,565.2 L 9.4,47.6 C 9.4,25.7 27.3,7.8 49.2,7.8 l 205.8,0 c 21.9,0 39.8,17.9 39.8,39.8 l 0,517.6 z"
         id="path13"
         inkscape:connector-curvature="0"
         style="fill:#f7f7f7" /><path
         class="st2"
         d="m 174,42.9 -43.1,0 c -1,0 -1.7,-0.8 -1.7,-1.7 l 0,-0.4 c 0,-1 0.8,-1.7 1.7,-1.7 l 43.1,0 c 1,0 1.7,0.8 1.7,1.7 l 0,0.4 c 0,0.9 -0.8,1.7 -1.7,1.7 l 0,0 z"
         id="path15"
         inkscape:connector-curvature="0"
         style="fill:#3e3e3e" /><circle
         class="st2"
         cx="104.7"
         cy="41"
         id="ellipse21"
         r="2.7"
         style="fill:#3e3e3e" /><path
         class="st0"
         d="m 175,569.2 c 0,12.9 -10.5,23.4 -23.4,23.4 -12.9,0 -23.4,-10.5 -23.4,-23.4 0,-12.9 10.5,-23.4 23.4,-23.4 12.9,0 23.4,10.5 23.4,23.4 z"
         id="path23"
         inkscape:connector-curvature="0"
         style="fill:#f4dfca" /><circle
         class="st1"
         cx="151.5"
         cy="569.20001"
         id="ellipse25"
         r="21"
         style="fill:#f7f7f7" /></g></g></svg>