<?xml version="1.0" encoding="UTF-8" standalone="no"?>
<!-- Generator: Adobe Illustrator 19.2.1, SVG Export Plug-In . SVG Version: 6.00 Build 0)  -->

<svg
   xmlns:dc="http://purl.org/dc/elements/1.1/"
   xmlns:cc="http://creativecommons.org/ns#"
   xmlns:rdf="http://www.w3.org/1999/02/22-rdf-syntax-ns#"
   xmlns:svg="http://www.w3.org/2000/svg"
   xmlns="http://www.w3.org/2000/svg"
   xmlns:sodipodi="http://sodipodi.sourceforge.net/DTD/sodipodi-0.dtd"
   xmlns:inkscape="http://www.inkscape.org/namespaces/inkscape"
   version="1.1"
   x="0px"
   y="0px"
   viewBox="0 0 303.2 610.4"
   style="enable-background:new 0 0 303.2 610.4;"
   xml:space="preserve"
   id="svg2"
   inkscape:version="0.91 r13725"
   sodipodi:docname="silver.svg"><metadata
     id="metadata31"><rdf:RDF><cc:Work
         rdf:about=""><dc:format>image/svg+xml</dc:format><dc:type
           rdf:resource="http://purl.org/dc/dcmitype/StillImage" /></cc:Work></rdf:RDF></metadata><defs
     id="defs29" /><sodipodi:namedview
     pagecolor="#ffffff"
     bordercolor="#666666"
     borderopacity="1"
     objecttolerance="10"
     gridtolerance="10"
     guidetolerance="10"
     inkscape:pageopacity="0"
     inkscape:pageshadow="2"
     inkscape:window-width="1920"
     inkscape:window-height="1017"
     id="namedview27"
     showgrid="false"
     inkscape:zoom="3.0930536"
     inkscape:cx="195.65418"
     inkscape:cy="443.60963"
     inkscape:window-x="-8"
     inkscape:window-y="-8"
     inkscape:window-maximized="1"
     inkscape:current-layer="svg2" /><style
     type="text/css"
     id="style4">
	.st0{fill:#D3D3D3;}
	.st1{fill:#F7F7F7;}
	.st2{fill:#3E3E3E;}
	.st3{fill:#387684;}
	.st4{fill:#D8D8D8;}
</style><g
     id="Backgrounds" /><g
     id="Shadows" /><g
     id="Phones"><g
       id="g9"><path
         class="st0"
         d="M299.7,131.2h-0.6V47.6c0-24.3-19.9-44.2-44.2-44.2H49.2C24.8,3.4,4.9,23.3,4.9,47.6v32.1H4.3    c-0.8,0-1.5,0.7-1.5,1.5v21.5c0,0.8,0.7,1.5,1.5,1.5h0.7v27.6H4.3c-0.8,0-1.5,0.7-1.5,1.5v42c0,0.8,0.7,1.5,1.5,1.5h0.7v10.4H4.3    c-0.8,0-1.5,0.7-1.5,1.5v41.9c0,0.8,0.7,1.5,1.5,1.5h0.7v333.2c0,24.3,19.9,44.2,44.2,44.2h205.8c24.3,0,44.2-19.9,44.2-44.2    V176.3h0.6c0.8,0,1.5-0.7,1.5-1.5v-42.1C301.2,131.9,300.5,131.2,299.7,131.2z"
         id="path11" /><path
         class="st1"
         d="M294.7,565.2c0,21.9-17.9,39.8-39.8,39.8H49.2c-21.9,0-39.8-17.9-39.8-39.8V47.6c0-21.9,17.9-39.8,39.8-39.8    h205.8c21.9,0,39.8,17.9,39.8,39.8V565.2z"
         id="path13" /><path
         class="st2"
         d="M174,42.9h-43.1c-1,0-1.7-0.8-1.7-1.7v-0.4c0-1,0.8-1.7,1.7-1.7H174c1,0,1.7,0.8,1.7,1.7v0.4    C175.7,42.1,174.9,42.9,174,42.9L174,42.9z"
         id="path15" /><ellipse
         class="st2"
         cx="104.7"
         cy="41"
         rx="2.7"
         ry="2.7"
         id="ellipse21" /><path
         class="st4"
         d="M175,569.2c0,12.9-10.5,23.4-23.4,23.4c-12.9,0-23.4-10.5-23.4-23.4c0-12.9,10.5-23.4,23.4-23.4    C164.5,545.8,175,556.3,175,569.2z"
         id="path23" /><ellipse
         class="st1"
         cx="151.5"
         cy="569.2"
         rx="21"
         ry="21"
         id="ellipse25" /></g></g></svg>