<?xml version="1.0" encoding="UTF-8" standalone="no"?>
<!-- Generator: Adobe Illustrator 19.2.1, SVG Export Plug-In . SVG Version: 6.00 Build 0)  -->

<svg
   xmlns:dc="http://purl.org/dc/elements/1.1/"
   xmlns:cc="http://creativecommons.org/ns#"
   xmlns:rdf="http://www.w3.org/1999/02/22-rdf-syntax-ns#"
   xmlns:svg="http://www.w3.org/2000/svg"
   xmlns="http://www.w3.org/2000/svg"
   xmlns:sodipodi="http://sodipodi.sourceforge.net/DTD/sodipodi-0.dtd"
   xmlns:inkscape="http://www.inkscape.org/namespaces/inkscape"
   version="1.1"
   x="0px"
   y="0px"
   viewBox="0 0 395.5 800.73941"
   xml:space="preserve"
   id="svg2"
   inkscape:version="0.91 r13725"
   sodipodi:docname="space-grey.svg"
   width="395.5"
   height="800.73944"><metadata
     id="metadata31"><rdf:RDF><cc:Work
         rdf:about=""><dc:format>image/svg+xml</dc:format><dc:type
           rdf:resource="http://purl.org/dc/dcmitype/StillImage" /><dc:title></dc:title></cc:Work></rdf:RDF></metadata><defs
     id="defs29" /><sodipodi:namedview
     pagecolor="#ffffff"
     bordercolor="#666666"
     borderopacity="1"
     objecttolerance="10"
     gridtolerance="10"
     guidetolerance="10"
     inkscape:pageopacity="0"
     inkscape:pageshadow="2"
     inkscape:window-width="1920"
     inkscape:window-height="1017"
     id="namedview27"
     showgrid="false"
     inkscape:snap-bbox="true"
     inkscape:snap-global="true"
     inkscape:zoom="1.0971545"
     inkscape:cx="113.48035"
     inkscape:cy="591.51473"
     inkscape:window-x="-8"
     inkscape:window-y="-8"
     inkscape:window-maximized="1"
     inkscape:current-layer="svg2"
     fit-margin-top="0"
     fit-margin-left="0"
     fit-margin-right="0"
     fit-margin-bottom="0" /><style
     type="text/css"
     id="style4">
	.st0{fill:#656F72;}
	.st1{fill:#232322;}
	.st2{fill:#5B5F60;}
	.st3{fill:#0E1011;}
	.st4{fill:#387684;}
</style><g
     id="Backgrounds"
     transform="translate(-2,192.13944)" /><g
     id="Shadows"
     transform="translate(-2,192.13944)" /><g
     id="Phones"
     transform="matrix(1.3253597,0,0,1.3209163,-2.6507194,-3.1701991)"><g
       id="g9"><path
         class="st0"
         d="m 299,130.2 -0.6,0 0,-83.6 C 298.4,22.3 278.5,2.4 254.2,2.4 L 48.4,2.4 C 24.1,2.4 4.2,22.3 4.2,46.6 l 0,32.1 -0.7,0 C 2.7,78.7 2,79.4 2,80.2 l 0,21.5 c 0,0.8 0.7,1.5 1.5,1.5 l 0.7,0 0,27.6 -0.7,0 c -0.8,0 -1.5,0.7 -1.5,1.5 l 0,42 c 0,0.8 0.7,1.5 1.5,1.5 l 0.7,0 0,10.4 -0.7,0 c -0.8,0 -1.5,0.7 -1.5,1.5 l 0,41.9 c 0,0.8 0.7,1.5 1.5,1.5 l 0.7,0 0,333.3 c 0,24.3 19.9,44.2 44.2,44.2 l 205.7,0 c 24.3,0 44.2,-19.9 44.2,-44.2 l 0,-389.1 0.6,0 c 0.8,0 1.5,-0.7 1.5,-1.5 l 0,-42.1 c 0.1,-0.8 -0.6,-1.5 -1.4,-1.5 z"
         id="path11"
         inkscape:connector-curvature="0"
         style="fill:#656f72" /><path
         class="st1"
         d="m 294,564.2 c 0,21.9 -17.9,39.8 -39.8,39.8 L 48.4,604 C 26.5,604 8.6,586.1 8.6,564.2 L 8.6,46.6 C 8.6,24.7 26.5,6.8 48.4,6.8 l 205.7,0 C 276,6.8 294,24.7 294,46.6 l 0,517.6 z"
         id="path13"
         inkscape:connector-curvature="0"
         style="fill:#232322" /><path
         class="st2"
         d="m 173.2,41.9 -43.1,0 c -1,0 -1.7,-0.8 -1.7,-1.7 l 0,-0.4 c 0,-1 0.8,-1.7 1.7,-1.7 l 43.1,0 c 1,0 1.7,0.8 1.7,1.7 l 0,0.4 c 0.1,0.9 -0.7,1.7 -1.7,1.7 l 0,0 z"
         id="path15"
         inkscape:connector-curvature="0"
         style="fill:#5b5f60" /><circle
         class="st2"
         cx="104"
         cy="40"
         r="2.7"
         id="circle21"
         style="fill:#5b5f60" /><circle
         class="st2"
         cx="150.8"
         cy="568.20001"
         id="ellipse23"
         r="23.4"
         style="fill:#5b5f60" /><circle
         class="st1"
         cx="150.8"
         cy="568.20001"
         id="ellipse25"
         r="21"
         style="fill:#232322" /></g></g></svg>